<svg xmlns="http://www.w3.org/2000/svg" version="1.1" xmlns:xlink="http://www.w3.org/1999/xlink" xmlns:svgjs="http://svgjs.dev/svgjs" width="100%" height="100%" viewBox="0 0 1000 600"><rect width="1000" height="600" x="0" y="0" fill="#99f443"/><g><rect width="333.3333333333333" height="333.3333333333333" rx="13.333333333333334" ry="13.333333333333334" y="140.71909135077217" fill="#ec449b" transform="matrix(1.0548801855174306,0,0,1.0548801855174303,0,-24.255136976052555)" x="118.49687194824219"/><path d="M305.9530645724609 236.9294877806767L305.9530645724609 236.9294877806767Q310.0681339779285 236.9294877806767 315.412008830862 238.47263880772704Q320.7558836837956 240.01578983477737 324.0708007048667 243.5021680810763L324.0708007048667 243.5021680810763Q326.3283735036996 245.55970278381005 323.44210954569803 244.73097352854228L323.44210954569803 244.73097352854228Q320.55584558769647 244.33089733634407 317.58385101708103 243.38786059759107Q314.58327957559425 242.4734007297094 311.09690132929535 242.4734007297094L311.09690132929535 242.4734007297094Q298.35161692069437 242.27336263361028 292.5790890046913 249.78907967276285Q286.80656108868817 257.2762198410441 286.0064087042917 268.82127567305037L286.0064087042917 268.82127567305037Q285.377717545123 276.8227995170151 286.2921774130047 284.76716961923717Q287.2352141517577 292.682962850588 288.4640195992237 300.4844485984536Q289.69282504668973 308.3145112171905 290.63586178544267 316.1445738359273Q291.5503216533244 323.94605958379293 290.7215923980566 331.976160298629L290.7215923980566 331.976160298629Q290.5215543019575 334.2337330974618 290.20720872237314 334.66238616053136Q289.8928631427889 335.06246235272965 289.6070944340758 334.43377119356103Q289.2927488544915 333.83365690526364 288.9784032749072 332.69058207041155Q288.66405769532287 331.5760841064307 288.4640195992237 330.747354851163L288.4640195992237 330.747354851163Q287.2352141517577 322.5172160402278 285.377717545123 314.1727697458075Q283.52022093848836 305.85690032225847 281.8913392988241 297.3981465443529Q280.23388078828856 288.9679696373187 279.31942092040686 280.5377927302844Q278.3763841816539 272.1076158232501 279.2051134369217 263.4488239492455L279.2051134369217 263.4488239492455Q279.8338045960903 257.9049110002128 281.8913392988241 253.07541982296266Q283.9488740015579 248.24592864571252 287.3209447643716 244.64524291592838Q290.7215923980566 241.04455718614426 295.4653529626928 238.9870224834105Q300.1805366564578 236.9294877806767 305.9530645724609 236.9294877806767ZM269.317516115451 264.07751510841416L269.317516115451 264.07751510841416Q269.94620727461967 258.5336021593814 272.20378007345255 252.8753817268635Q274.4613528722855 247.21716129434563 278.29065356904 242.58770821319462Q282.09137739492326 237.9582551320436 287.549559731342 235.15772178665594Q292.97916519688954 232.3857653121396 299.78046046425953 232.3857653121396L299.78046046425953 232.3857653121396Q299.9804985603587 232.3857653121396 300.9235352991116 232.5000727956248Q301.8379951669933 232.58580340823872 302.5524169387759 232.81441837520913Q303.26683871055843 233.01445647130825 303.1811080979445 233.21449456740737Q303.06680061445934 233.4145326635065 301.63795707089423 233.6145707596056L301.63795707089423 233.6145707596056Q296.0654672509902 234.64333811097248 291.3502835572253 237.32956397287495Q286.606522992589 240.01578983477737 283.1201447462901 243.90224427327453Q279.60518962911993 247.81727558264296 277.4619243137722 252.64676675989313Q275.2900821275532 257.5048348080145 274.890005935355 262.648671564849L274.890005935355 262.648671564849Q274.0612766800872 272.50769201544836 275.71873519062274 282.481019949533Q277.34761683028705 292.48292475448886 279.519459016506 302.3419452050882Q281.6627243318537 312.22954252655893 283.20587535890405 322.20287046064345Q284.7490263859544 332.1761983947281 283.9488740015579 342.0637957161988L283.9488740015579 342.0637957161988Q283.52022093848836 345.97882702556717 282.09137739492326 350.29393452713384Q280.6339569804868 354.6090420287006 278.29065356904 358.3240352419699Q275.9187732867219 362.01045158436796 272.40381816955164 364.58236996278515Q268.9174399232528 367.15428834120235 264.60233242168607 367.7829795003711L264.60233242168607 367.7829795003711Q261.31599227148627 368.18305569256927 261.8303759471697 367.4686339207867Q262.3447596228532 366.75421214900416 264.17367935861654 365.72544479763724L264.17367935861654 365.72544479763724Q271.6036657851552 361.6103753921698 274.37562225967156 356.03788557226574Q277.1475787341879 350.49397262323305 277.9763079894557 342.2638338122979L277.9763079894557 342.2638338122979Q278.80503724472345 332.8048895538967 277.2618862176731 322.917292232426Q275.71873519062274 313.05827178182665 273.661200487889 303.170674460356Q271.6036657851552 293.28307713888535 270.0605147581049 283.50978730089986Q268.5173637310545 273.7364974629144 269.317516115451 264.07751510841416ZM263.7736031664183 378.07065301404L263.7736031664183 378.07065301404Q272.40381816955164 378.07065301404 278.3763841816539 374.87004347645404Q284.34895019375614 371.69801080973946 288.26398150312457 366.4398665694198Q292.17901281249306 361.1817223291001 294.23654751522685 354.29469644911626Q296.29408221796064 347.4076705691324 296.89419650625797 340.00626101346495L296.89419650625797 340.00626101346495Q297.72292576152574 330.747354851163 296.4941203140597 321.4884486888609Q295.2653148665937 312.22954252655893 293.7221638395434 303.05636697687083Q292.17901281249306 293.911768298054 290.92163049415575 284.65286213575195Q289.69282504668973 275.39395597345 290.5215543019575 265.9350117150488L290.5215543019575 265.9350117150488Q291.3502835572253 256.4760674566476 296.3798128305745 250.90357763674365Q301.4379189747951 245.35966468771096 311.4969775214936 245.35966468771096L311.4969775214936 245.35966468771096Q315.0119326386638 245.35966468771096 320.4701149750826 246.58847013517698Q325.89972044063006 247.81727558264296 329.41467555780025 250.07484838147587L329.41467555780025 250.07484838147587Q333.1010919001983 252.5610361472792 328.7859843986316 251.53226879591233L328.7859843986316 251.53226879591233Q326.3283735036996 250.90357763674365 322.41334219433116 250.07484838147587Q318.49831088496273 249.27469599707942 316.4407761822289 249.27469599707942L316.4407761822289 249.27469599707942Q308.4106754673929 249.27469599707942 302.6667244222611 252.76107424337832Q296.89419650625797 256.24745248967724 296.0654672509902 265.106282459781L296.0654672509902 265.106282459781Q295.0366998996233 274.56522671818215 296.4941203140597 283.9384403639694Q297.92296385762484 293.28307713888535 299.78046046425953 302.7705982681578Q301.63795707089423 312.22954252655893 302.9810700018454 321.68848678496Q304.29560606192535 331.14743104336117 303.4954536775289 340.60637530176234L303.4954536775289 340.60637530176234Q302.8667625183602 348.4364379204992 300.4091516234282 355.83784747616664Q297.92296385762484 363.239257031834 293.4078182599591 369.2118230439362Q288.86409579142196 375.1843890560384 282.1771080075372 378.78507478582253Q275.49012022365235 382.38576051560665 266.45982902832077 382.38576051560665L266.45982902832077 382.38576051560665Q263.9736412625174 382.38576051560665 260.05860995314896 381.55703126033893Q256.1721555146518 380.7283020050711 252.2571242052834 379.41376594499116Q248.34209289591493 378.07065301404 244.94144526222993 376.09884892392006Q241.5407976285449 374.1556217046715 239.91191598888068 371.89804890583866L239.91191598888068 371.89804890583866Q238.054419382246 369.8405142031048 241.14072143634667 370.86928155447174L241.14072143634667 370.86928155447174Q244.6270996826456 372.7267781611064 249.68520582686614 375.3844271521375Q254.7147351002154 378.07065301404 263.7736031664183 378.07065301404ZM262.5447977189523 370.86928155447174L262.5447977189523 370.86928155447174Q267.6886344757868 370.86928155447174 272.00374197735346 369.2118230439362Q276.31884947892013 367.582941404272 280.86257194745724 364.8967155423695L280.86257194745724 364.8967155423695L280.86257194745724 365.52540670153815Q280.86257194745724 367.35432643730155 278.8907678573373 369.12609243132226Q276.94754063808875 370.86928155447174 274.0612766800872 372.29812509803685Q271.1750127220857 373.7555455124733 267.5743269923015 374.5556978968698Q263.9736412625174 375.3844271521375 260.2872249201194 375.3844271521375L260.2872249201194 375.3844271521375Q258.829804505683 375.3844271521375 256.37219361075097 374.87004347645404Q253.88600584494762 374.3556598007707 251.3140874665304 373.44119993288894Q248.74216908811317 372.49816319413594 246.48459628928026 371.2693577466699Q244.22702349044735 370.0405522992039 243.39829423517958 368.38309378866836L243.39829423517958 368.38309378866836Q241.14072143634667 365.92548289373644 241.96945069161444 365.6111373141521Q242.79817994688221 365.2967917345677 244.22702349044735 366.32555908593463L244.22702349044735 366.32555908593463Q247.51336364064716 367.35432643730155 251.74274052959993 369.12609243132226Q255.9435405476814 370.86928155447174 262.5447977189523 370.86928155447174Z " fill="#99f443" transform="matrix(1.0548801855174306,0,0,1.0548801855174303,0,-24.255136976052555)"/><path d="M554.4398496813326 279.6156878378292L554.4398496813326 279.6156878378292Q554.5690969924133 278.415534234937 555.2337974493997 276.7537830924709Q555.8984979063862 275.09203195000475 557.0247959029466 273.5779920202023Q558.1510938995069 272.0454881888169 559.7574533372242 270.77147897959287Q561.3453488733585 269.5159336719518 563.3394502443177 269.10972783712674L563.3394502443177 269.10972783712674Q567.5861476083978 268.3157800690596 570.3926606490073 269.6451809830325Q573.1807097880338 270.9745818970054 574.6393580130874 272.7101886458033L574.6393580130874 272.7101886458033Q575.1748111589932 273.50413641387047 575.0455638479125 273.63338372495116L575.0455638479125 273.63338372495116Q574.7686053241681 273.91034224869554 574.1039048671817 273.50413641387047L574.1039048671817 273.50413641387047Q573.3099570991145 272.9686832679647 571.5189586455676 272.58094133472264Q569.7279601920209 272.17473549989757 567.6600032147296 272.3778384173101Q565.5920462374386 272.58094133472264 563.671800472811 273.63338372495116Q561.7515547081834 274.7042900167627 560.5514011052912 277.0861333209641L560.5514011052912 277.0861333209641Q559.4804948134798 279.3571932156678 559.0927528802376 281.7390365198692Q558.6865470454127 284.13934372565365 558.6126914390809 286.2073007029448Q558.557299734332 288.25679377865305 558.6865470454127 289.71544200370664Q558.8157943564934 291.1925541303432 558.8157943564934 291.709543374666L558.8157943564934 291.709543374666Q559.0927528802376 293.1866555013025 559.2773918960672 295.3653958880914Q559.4804948134798 297.56260017646326 559.4804948134798 299.833660071167Q559.4804948134798 302.08625606428774 559.351247502399 304.2834603526596Q559.2220001913183 306.48066464103147 558.8157943564934 308.06856017716575L558.8157943564934 308.06856017716575Q558.6865470454127 308.4747660119908 558.4834441280002 309.39796109113865Q558.2803412105876 310.3211561702865 558.0218465884262 310.3211561702865L558.0218465884262 310.3211561702865Q557.3571461314398 310.3211561702865 557.3571461314398 309.39796109113865Q557.3571461314398 308.4747660119908 557.3571461314398 308.06856017716575L557.3571461314398 308.06856017716575Q557.0986515092784 304.74505789223355 556.4339510522918 301.34770000096944Q555.7692505953055 297.96880601128834 555.1599418430678 294.36834520261175Q554.5690969924133 290.7863482955181 554.2921384686689 287.1304957820927Q554.0336438465075 283.4746432686672 554.4398496813326 279.6156878378292ZM549.7869464824274 305.9452114951257L549.7869464824274 305.9452114951257Q549.9161937935081 303.28640966717995 549.3068850412706 298.4304035508623Q548.716040190616 293.5743974345446 548.8452875016967 287.20435138842447L548.8452875016967 287.20435138842447Q548.9745348127774 283.88084910349227 549.509987958683 280.35424390114747Q550.0454411045888 276.82763869880273 552.0395424755482 273.3748891027898L552.0395424755482 273.3748891027898Q554.1628911575882 269.6451809830325 557.4310017377716 267.8541825294857Q560.6806484163719 266.06318407593886 563.0809556221564 266.19243138701955L563.0809556221564 266.19243138701955Q563.4686975553984 266.19243138701955 563.8749033902236 266.19243138701955Q564.2626453234657 266.19243138701955 564.2626453234657 266.32167869810024L564.2626453234657 266.32167869810024Q564.2626453234657 266.5986372218446 564.133398012385 266.5247816155128Q564.0041507013043 266.45092600918093 563.210202933237 266.7278845329253L563.210202933237 266.7278845329253Q560.8098957274526 267.39258498991177 558.9450416675741 268.92508882129715Q557.0986515092784 270.43912875109964 555.7692505953055 272.433230122059Q554.4398496813326 274.4273314930183 553.6274380116824 276.5691440766413Q552.8334902436153 278.69249275868134 552.7042429325346 280.40963560589637L552.7042429325346 280.40963560589637Q551.9102951644675 287.7213406327473 552.8334902436153 293.1866555013025L552.8334902436153 293.1866555013025Q553.4981907006018 297.56260017646326 553.9043965354268 302.2893589817003Q554.2921384686689 306.9976538853543 553.5720463069335 310.9304649225241Q552.8334902436153 314.84481205811085 550.783997167907 317.44822218130787Q548.716040190616 320.0331684029218 544.4693428265359 320.29166302508315L544.4693428265359 320.29166302508315Q544.0631369917107 320.29166302508315 543.4722921410562 320.23627132033425Q542.8629833888185 320.16241571400246 542.8629833888185 319.9039210918411L542.8629833888185 319.9039210918411Q542.8629833888185 319.6269625680967 544.0631369917107 318.96226211111025L544.0631369917107 318.96226211111025Q547.5158865877238 317.37436657497597 548.5867928795352 314.3093589122052Q549.6392352697637 311.26281515101726 549.7869464824274 305.9452114951257ZM535.6805256730484 321.62106393905606L535.6805256730484 321.62106393905606Q537.545379732927 324.55682429074625 541.6074380811775 325.94161690946794Q545.651032527845 327.34487342977275 551.245594707481 325.75697789363846L551.245594707481 325.75697789363846Q554.0336438465075 324.9445662239883 556.1569925285476 322.95046485302896Q558.2803412105876 320.9563634820696 559.6835977308923 318.5006645715364Q561.0868542511971 316.04496566100306 561.8069464129323 313.38616383305725Q562.5455024762507 310.72736200511156 562.6747497873314 308.4747660119908L562.6747497873314 308.4747660119908Q562.8039970984121 304.74505789223355 562.4716468699188 301.1630609851399Q562.1392966414255 297.56260017646326 561.6776991018517 294.18370618678216Q561.2161015622778 290.7863482955181 560.8837513337845 287.5920933216666Q560.5514011052912 284.397838347815 560.8098957274526 281.35129458662715L560.8098957274526 281.35129458662715Q561.0868542511971 278.0277923016949 562.6747497873314 276.29218555289697Q564.2626453234657 274.575042705682 566.5890969229182 274.0949812645251Q568.9155485223707 273.63338372495116 571.4451030392358 274.4273314930183Q573.974657556101 275.23974316266845 576.098006238141 276.9568860098834L576.098006238141 276.9568860098834Q576.6334593840468 277.23384453362775 576.5042120729661 277.62158646686987L576.5042120729661 277.62158646686987Q576.5042120729661 277.8985449906142 576.2272535492217 277.75083377795056Q575.9687589270602 277.62158646686987 575.7102643048988 277.4923391557892L575.7102643048988 277.4923391557892Q570.7804025822494 275.9044436196549 568.0662090495548 276.5691440766413Q565.3335516152772 277.23384453362775 565.0750569931157 281.35129458662715L565.0750569931157 281.35129458662715Q564.7980984693713 286.133445096613 565.7951491548511 292.57734674906493Q566.7921998403308 299.02124840151686 566.5337052181693 306.8684065742736L566.5337052181693 306.8684065742736Q566.66295252925 309.52720840221934 565.9243964659317 312.9799579982323Q565.2043043041964 316.45117149582813 563.5425531617303 319.7008181744286Q561.8808020192641 322.95046485302896 559.1481445849865 325.4800193698941Q556.4339510522918 328.0095738867592 552.7042429325346 328.67427434374565L552.7042429325346 328.67427434374565Q545.651032527845 329.74518063555706 541.4781907700968 327.8803265756784Q537.2868851107656 326.01547251579984 535.422031050887 322.1565170849618L535.422031050887 322.1565170849618Q535.1635364287256 321.3625693168947 535.1635364287256 321.233322005814L535.1635364287256 321.233322005814L535.2927837398063 321.233322005814Q535.2927837398063 321.233322005814 535.6805256730484 321.62106393905606ZM541.5335824748457 321.62106393905606L541.5335824748457 321.62106393905606Q544.0631369917107 322.2857643960425 547.6451338988045 322.1565170849618L547.6451338988045 322.1565170849618Q548.8452875016967 322.02726977388113 550.5808942504946 321.49181662797537Q552.2980370977095 320.9563634820696 552.4457483103732 321.233322005814L552.4457483103732 321.233322005814Q552.8334902436153 321.76877515171975 551.6333366407232 322.5627229197869Q550.4516469394139 323.35667068785403 548.5867928795352 323.9475155385086Q546.7219388196565 324.55682429074625 544.7278374486973 324.75992720815873Q542.7337360777378 324.9445662239883 541.4043351637649 324.42757697966556L541.4043351637649 324.42757697966556Q538.8747806468999 323.35667068785403 537.7484826503396 322.1011253802129Q536.6221846537792 320.8271161709889 535.6805256730484 318.96226211111025L535.6805256730484 318.96226211111025L535.422031050887 318.4452728667875Q535.1635364287256 317.9098197208817 535.2927837398063 317.78057240980104L535.2927837398063 317.78057240980104Q535.422031050887 317.63286119713734 535.6805256730484 317.78057240980104L535.6805256730484 317.78057240980104Q535.828236885712 317.9098197208817 535.828236885712 318.0390670319624L535.828236885712 318.0390670319624Q537.4161324218463 319.497715257016 538.5424304184066 320.23627132033425Q539.6687284149671 320.9563634820696 541.5335824748457 321.62106393905606ZM627.6861472609226 281.8867477325329L627.6861472609226 281.8867477325329Q626.615240969111 287.20435138842447 624.0856864522459 292.5219550443161Q621.5745958369638 297.83955870020765 619.30353594226 302.4924618991128L619.30353594226 302.4924618991128Q619.1742886311794 302.7509565212742 618.7126910916054 303.41565697826064Q618.2510935520315 304.0803574352471 617.9741350282873 304.0803574352471L617.9741350282873 304.0803574352471Q617.5863930950451 303.9511101241664 617.5863930950451 303.2125540608481Q617.5863930950451 302.4924618991128 617.5863930950451 302.2155033753684L617.5863930950451 302.2155033753684Q617.7156404061258 301.0153497724762 618.047990634619 299.35359863001014Q618.3803408631122 297.691847487544 618.6388354852736 295.9008490339972Q618.915794009018 294.10985058045037 619.2481442375113 292.44809943798424Q619.5804944660044 290.7863482955181 619.9682363992465 289.4569473815452L619.9682363992465 289.4569473815452Q621.1683900021387 284.9332914937208 621.9623377702059 281.6836448151204Q622.756285538273 278.415534234937 623.1624913730981 275.7567324069912Q623.5686972079232 273.09793057904545 623.624088912672 270.71608727484397Q623.6979445190038 268.3157800690596 623.2917386841788 265.5277309300331L623.2917386841788 265.5277309300331Q623.1624913730981 264.45682463822163 623.4209859952595 264.1983300160602L623.4209859952595 264.1983300160602Q623.6979445190038 264.0690827049795 624.0856864522459 264.45682463822163Q624.491892287071 264.86303047304665 624.7503869092324 265.2692363078717L624.7503869092324 265.2692363078717Q627.021446803936 268.85123321496536 627.8153945720032 273.17178618537724Q628.6093423400703 277.4923391557892 627.6861472609226 281.8867477325329ZM630.3449490888684 272.17473549989757L630.880402234774 272.9686832679647Q632.597545081989 275.4982377848298 632.597545081989 279.6156878378292Q632.597545081989 283.7331378908286 631.8035973139218 288.0536908612405Q631.0096495458547 292.37424383165245 629.8094959429625 296.3624465735711Q628.6093423400703 300.35064931548976 628.0738891941646 302.7509565212742L628.0738891941646 302.7509565212742Q627.021446803936 307.40385972017936 625.1565927440574 312.05676291908446Q623.2917386841788 316.7096661179895 621.9623377702059 320.29166302508315L621.9623377702059 320.29166302508315Q621.8330904591252 320.6978688599082 621.5745958369638 321.1594663994822Q621.2976373132194 321.62106393905606 621.039142691058 321.62106393905606L621.039142691058 321.62106393905606Q620.7621841673136 321.62106393905606 620.7621841673136 321.1040746947333Q620.7621841673136 320.56862154882754 620.7621841673136 320.16241571400246L620.7621841673136 320.16241571400246Q620.3744422340716 312.8507106871516 622.3685436050309 305.87135588879386Q624.3626449759902 298.89200109043617 626.615240969111 291.709543374666L626.615240969111 291.709543374666Q627.9446418830839 287.33359869950516 629.1447954859761 282.73608720534895Q630.3449490888684 278.15703961277563 630.2157017777876 272.7101886458033L630.2157017777876 272.7101886458033Q630.2157017777876 272.17473549989757 630.3449490888684 272.17473549989757L630.3449490888684 272.17473549989757ZM618.3803408631122 270.71608727484397L618.3803408631122 270.71608727484397Q610.2746880681941 274.03958955977623 604.6247341838093 280.2249965900668Q598.9747802994245 286.3919397187744 595.9097726366538 294.10985058045037L595.9097726366538 294.10985058045037Q594.5803717226809 297.56260017646326 593.9156712656943 300.2952576107409Q593.250970808708 303.00945114343557 592.8447649738829 306.20370611728714L592.8447649738829 306.20370611728714Q592.7155176628022 306.8684065742736 593.250970808708 307.53310703126Q593.7864239546136 308.19780748824644 594.3218771005195 307.53310703126L594.3218771005195 307.53310703126Q596.7037204047208 304.6158105811528 600.4334285244781 300.0921546933284Q604.1446727426525 295.56849880550396 607.8743808624098 290.52785367335673Q611.604088982167 285.46874463962655 614.595241038606 280.2803882948156Q617.5863930950451 275.09203195000475 618.3803408631122 270.71608727484397ZM609.4622763985441 315.7864710388417L609.4622763985441 315.7864710388417Q607.4681750275847 318.5745201778682 605.6217848692891 320.9563634820696Q603.7569308094104 323.35667068785403 601.4858709147068 325.1476691414008Q599.2332749215859 326.9386675949477 596.4452257825594 328.0095738867592Q593.6571766435329 329.0804801785706 590.0567158348564 329.2097274896513L590.0567158348564 329.2097274896513Q584.0744117219783 329.4682221118128 580.9540123544587 326.14471982688053Q577.833612986939 322.8212175419483 576.6334593840468 318.0390670319624Q575.4333057811546 313.25691652197656 575.7656560096477 308.1424157834976Q576.098006238141 303.00945114343557 577.1689125299524 299.6859488585033L577.1689125299524 299.6859488585033Q578.627560755006 295.0330456595982 580.6955177322973 290.86020390184996Q582.7450108080054 286.66889824251876 585.0714624074581 283.27154035125466Q587.3979140069106 279.89264636157355 589.8536129174438 277.41848354945733Q592.32777572956 274.96278463892406 594.7096190337616 273.63338372495116L594.7096190337616 273.63338372495116Q594.8388663448422 273.63338372495116 595.3189277859991 273.3748891027898Q595.7805253255731 273.09793057904545 595.7805253255731 273.50413641387047L595.7805253255731 273.50413641387047Q595.9097726366538 273.50413641387047 595.6512780144924 273.91034224869554Q595.3743194907479 274.2980841819376 595.1158248685865 274.575042705682L595.1158248685865 274.575042705682Q588.1918617749777 281.7390365198692 584.1482673283101 290.7863482955181Q580.0862089800596 299.833660071167 579.550755834154 309.39796109113865L579.550755834154 309.39796109113865Q579.4215085230733 311.79826829692297 579.7538587515664 314.58631743594947Q580.0862089800596 317.37436657497597 581.0832596655393 319.8300654855093Q582.0803103510191 322.2857643960425 583.9451644108976 323.9475155385086Q585.8100184707763 325.60926668097477 589.0042734446279 325.60926668097477L589.0042734446279 325.60926668097477Q591.51536405991 325.60926668097477 593.6571766435329 324.75992720815873Q595.7805253255731 323.8921238337598 597.6453793854516 322.488867313455Q599.4917695437473 321.1040746947333 601.0242733751328 319.4423235522671Q602.5567772065182 317.78057240980104 603.7569308094104 316.30346028316444L603.7569308094104 316.30346028316444Q606.4157326373562 312.9799579982323 608.6683286304769 309.39796109113865L608.6683286304769 309.39796109113865Q608.6683286304769 306.73915926319285 609.0006788589701 304.2096047463278Q609.3330290874634 301.68005022946267 609.9977295444498 299.16895961418055L609.9977295444498 299.16895961418055Q610.4039353792748 297.3041055543019 610.7362856077681 296.1778075577415Q611.0686358362614 295.0330456595982 611.4009860647545 294.0359949741185Q611.7333362932477 293.03894428863885 612.065686521741 291.9126462920785Q612.3980367502343 290.7863482955181 613.0627372072206 288.9214942356395L613.0627372072206 288.9214942356395Q610.9393885251807 292.6512023553968 608.8714315478894 295.9008490339972Q606.8034745705983 299.16895961418055 604.4770229711457 302.16011167061953Q602.1505713716931 305.15126372705856 599.6948724611599 307.9947045708339Q597.2391735506267 310.85660931619225 594.3218771005195 313.7923696678823L594.3218771005195 313.7923696678823Q592.0508172058157 316.04496566100306 590.5921689807622 315.2510178929359Q589.1335207557086 314.4570701248688 588.8565622319642 311.5213097731787L588.8565622319642 311.5213097731787Q588.5980676098028 306.9976538853543 589.336623673121 302.7509565212742Q590.0567158348564 298.5042591571941 591.9215698947351 293.85135595828893L591.9215698947351 293.85135595828893Q593.6571766435329 289.58619469262595 596.2421228651469 285.59799195070724Q598.827069086761 281.6097892087885 602.2244269780249 278.36014253018817Q605.6217848692891 275.09203195000475 609.7392349222885 272.7655803505522Q613.8566849752879 270.43912875109964 618.5095881741929 269.6451809830325L618.5095881741929 269.6451809830325Q618.7680827963543 268.1865327579789 618.9711857137669 267.1156264661674Q619.1742886311794 266.06318407593886 619.30353594226 264.99227778412734L619.30353594226 264.99227778412734Q619.5804944660044 263.53362955907374 619.5804944660044 263.53362955907374L619.5804944660044 263.53362955907374Q619.8389890881658 263.40438224799306 620.171339316659 263.7921241812352Q620.5036895451523 264.1983300160602 620.7621841673136 264.86303047304665L620.7621841673136 264.86303047304665Q622.3685436050309 269.2574390497904 621.8330904591252 273.63338372495116Q621.2976373132194 278.0277923016949 619.9128446944976 282.55144818951936Q618.5095881741929 287.05664017576083 616.6447341143142 291.7833989809978Q614.7798800544356 296.51015778623474 613.5981903531264 301.2923082962206L613.5981903531264 301.2923082962206Q611.9918309154091 308.06856017716575 612.7303869787274 315.3064095976848Q613.4504791404627 322.5627229197869 618.3803408631122 328.41577972158416L618.3803408631122 328.41577972158416Q618.7680827963543 328.93276896590703 618.7680827963543 328.93276896590703L618.7680827963543 328.93276896590703Q618.6388354852736 329.0804801785706 617.9741350282873 328.67427434374565L617.9741350282873 328.67427434374565Q614.1151795974492 326.2739671379612 612.1949338328217 322.89507314828006Q610.2746880681941 319.497715257016 609.4622763985441 315.7864710388417ZM614.1151795974492 268.7219859038847L614.1151795974492 268.7219859038847Q614.3921381211935 268.98048052604605 614.0597878927003 269.10972783712674Q613.7274376642072 269.2574390497904 612.6565313723956 269.5159336719518L612.6565313723956 269.5159336719518Q610.9393885251807 270.0513868178575 608.4652257130645 271.5100350429111Q606.0095268025311 272.9686832679647 603.2953332698364 275.23974316266845Q600.5626758355588 277.4923391557892 597.903874007613 280.48349121222816Q595.2450721796672 283.4746432686672 593.250970808708 286.92739286468014L593.250970808708 286.92739286468014Q591.2568694377486 290.52785367335673 589.8536129174438 293.9806032693697Q588.4688202987221 297.4333528653826 587.6010169243232 300.2952576107409Q586.7332135499241 303.1571623560992 586.3454716166821 305.2066554318074Q585.939265781857 307.2746124090986 585.939265781857 308.06856017716575L585.939265781857 308.06856017716575Q585.939265781857 310.0626615481251 585.939265781857 312.25986583649694Q585.939265781857 314.4570701248688 586.4747189277628 316.17421297208375Q587.0101720736685 317.9098197208817 588.3395729876413 318.83301480002956Q589.6689739016142 319.7746737807604 592.32777572956 319.3684679459353L592.32777572956 319.3684679459353Q592.4570230406407 319.3684679459353 592.9924761865466 319.16536502852284Q593.5094654308693 318.96226211111025 594.044918576775 318.77762309528066Q594.5803717226809 318.5745201778682 595.0419692622547 318.4452728667875Q595.5035668018286 318.2975616541238 595.6512780144924 318.2975616541238L595.6512780144924 318.2975616541238Q595.7805253255731 318.5745201778682 595.4481750970798 318.96226211111025Q595.1158248685865 319.3684679459353 594.5803717226809 319.8300654855093Q594.044918576775 320.29166302508315 593.5833210372011 320.6978688599082Q593.1217234976273 321.1040746947333 592.9924761865466 321.233322005814L592.9924761865466 321.233322005814Q589.6689739016142 323.22742337677334 587.3979140069106 322.4334756087062Q585.1453180137898 321.62106393905606 583.8713088045658 319.4423235522671Q582.6157634969247 317.2451192638953 582.1541659573509 314.2539672074563Q581.6925684177769 311.26281515101726 581.8218157288576 308.8625079452329L581.8218157288576 308.8625079452329Q582.0803103510191 304.2096047463278 583.2804639539112 299.63055715375447Q584.4806175568034 295.0330456595982 586.3454716166821 290.3801424606931L586.3454716166821 290.3801424606931Q587.8041198417357 286.79814555359945 590.7214162918428 283.0130457290933Q593.6571766435329 279.2279459045871 597.3130291569585 276.0336909307356Q600.9688816703839 272.839435956884 604.9570844123026 270.77147897959287Q608.9452871542212 268.7219859038847 612.6565313723956 268.592738592804L612.6565313723956 268.592738592804Q613.9859322863686 268.592738592804 614.1151795974492 268.7219859038847ZM621.9623377702059 328.41577972158416L621.9623377702059 328.41577972158416Q622.2392962939502 328.80352165482634 622.0915850812866 328.93276896590703L622.0915850812866 328.93276896590703Q621.7038431480445 328.93276896590703 621.039142691058 328.67427434374565L621.039142691058 328.67427434374565Q620.632936856233 328.41577972158416 618.915794009018 327.08637880761125Q617.18018726022 325.75697789363846 616.3862394921529 322.8212175419483L616.3862394921529 322.8212175419483Q616.1092809684085 321.76877515171975 615.9246419525789 320.10702400925356Q615.7215390351664 318.4452728667875 615.7215390351664 316.9681607401509Q615.7215390351664 315.5095125150973 615.9246419525789 314.4570701248688Q616.1092809684085 313.38616383305725 616.5154868032336 313.38616383305725L616.5154868032336 313.38616383305725Q616.9216926380586 313.38616383305725 617.3832901776326 314.97405936919165Q617.8448877172065 316.5804188069088 617.9741350282873 316.9681607401509L617.9741350282873 316.9681607401509Q618.3803408631122 318.83301480002956 618.7126910916054 320.23627132033425Q619.0450413200987 321.62106393905606 619.4327832533407 322.8212175419483L619.4327832533407 322.8212175419483Q619.9682363992465 324.27986576700187 620.8360397736456 326.14471982688053Q621.7038431480445 328.0095738867592 621.9623377702059 328.41577972158416ZM679.1265770710404 280.9450887518021L679.1265770710404 280.9450887518021Q679.4035355947847 285.0625388048015 678.5911239251346 288.8661025308906Q677.7971761570675 292.6512023553968 676.5970225541753 295.8454573292483L676.5970225541753 295.8454573292483Q676.3385279320139 296.51015778623474 675.7476830813592 297.3041055543019Q675.1383743291217 298.098053322369 674.6029211832159 297.83955870020765L674.6029211832159 297.83955870020765Q674.3444265610545 297.83955870020765 674.4736738721352 296.8978997194768Q674.6029211832159 295.974704640329 674.6029211832159 295.56849880550396L674.6029211832159 295.56849880550396Q674.7506323958796 294.10985058045037 674.8060241006284 291.9126462920785Q674.8798797069603 289.71544200370664 674.8798797069603 287.4628460105859Q674.8798797069603 285.21025001746517 674.6767767895477 283.14229304017397Q674.4736738721352 281.0743360628828 674.085931938893 279.6156878378292L674.085931938893 279.6156878378292Q672.885778336001 275.36899047374914 670.2823682128039 274.9073929341752Q667.69742199119 274.4273314930183 665.0386201632443 276.29218555289697Q662.3798183352985 278.15703961277563 659.9795111295141 281.48054189770784Q657.5976678253127 284.8040441826401 656.8037200572455 287.9982991564916L656.8037200572455 287.9982991564916Q657.5976678253127 286.79814555359945 658.8532131329537 285.1363944111333Q660.1272223421777 283.4746432686672 661.715117878312 281.94213943728175Q663.3030134144462 280.40963560589637 665.1124757695761 279.4125849204167Q666.9034742231229 278.415534234937 668.4913697592572 278.56324544760065L668.4913697592572 278.56324544760065Q670.2269765080551 278.69249275868134 670.9470686697905 280.40963560589637Q671.6856247331087 282.1452423546943 671.8148720441894 284.6747968715594Q671.9441193552701 287.20435138842447 671.556377422028 290.12164783853166Q671.150171587203 293.03894428863885 670.6147184412972 295.56849880550396L670.6147184412972 295.56849880550396Q669.6915233621494 299.6859488585033 669.0268229051629 304.0803574352471Q668.3621224481765 308.4747660119908 668.565225365589 312.647607769739Q668.7683282830016 316.8389134290702 670.0238735906426 320.77172446624Q671.2794188982837 324.68607160182694 674.3444265610545 328.0095738867592L674.3444265610545 328.0095738867592Q674.6029211832159 328.41577972158416 674.7506323958796 328.67427434374565Q674.8798797069603 328.93276896590703 674.085931938893 328.54502703266485L674.085931938893 328.54502703266485Q670.6147184412972 326.5509256617056 668.565225365589 323.8921238337598Q666.4972683882979 321.233322005814 665.4448259980693 318.1683143430431Q664.3739197062578 315.12177058185523 664.1708167888453 311.79826829692297Q663.9677138714328 308.4747660119908 664.2446723951771 305.15126372705856L664.2446723951771 305.15126372705856Q664.7801255410828 300.35064931548976 665.8325679313114 296.7686524083961Q666.9034742231229 293.1866555013025 667.4389273690286 288.66299961347806L667.4389273690286 288.66299961347806Q667.69742199119 285.87495047445157 667.0327215342036 285.00714710005263Q666.3680210772171 284.13934372565365 665.4448259980693 284.01009641457296L665.4448259980693 284.01009641457296Q664.1154250840964 283.88084910349227 662.4536739416303 285.3948890332947Q660.7919227991642 286.92739286468014 658.9824604440344 289.71544200370664Q657.1914619904876 292.5219550443161 655.5297108480215 296.2331992624904Q653.8679597055553 299.9629073822477 652.6678061026631 304.0803574352471L652.6678061026631 304.0803574352471Q651.6153637124346 308.19780748824644 650.0828598810492 312.647607769739Q648.5503560496637 317.1158719528146 647.2209551356909 320.29166302508315L647.2209551356909 320.29166302508315Q646.6855019897852 321.49181662797537 646.4270073676237 321.49181662797537L646.4270073676237 321.49181662797537Q646.1685127454623 321.49181662797537 645.9654098280498 320.9563634820696Q645.7623069106373 320.43937423774685 645.7623069106373 320.16241571400246L645.7623069106373 320.16241571400246Q645.2268537647315 313.51541114413806 646.9624605135294 306.9976538853543Q648.6796033607445 300.49836052815346 650.9506632554481 293.85135595828893L650.9506632554481 293.85135595828893Q652.280064169421 289.71544200370664 653.3325065596496 286.539650931438Q654.4034128514611 283.3453959575865 654.4034128514611 278.415534234937L654.4034128514611 278.415534234937Q654.4034128514611 276.29218555289697 655.4743191432726 273.9657339534444Q656.5267615335011 271.63928235399186 658.5947185107923 269.7190365893643Q660.6442115865005 267.78032692315384 663.7092192492714 266.5986372218446Q666.7742269120422 265.3984836189524 670.6147184412972 265.5277309300331L670.6147184412972 265.5277309300331Q677.0032283890004 265.6569782411138 680.4559779850133 268.51888298647214Q683.9087275810261 271.3807877318304 685.3119841013308 275.7567324069912Q686.7152406216356 280.15114098373493 686.512137704223 285.265641722214Q686.3090347868106 290.3801424606931 685.3858397076627 295.18075687226184L685.3858397076627 295.18075687226184Q684.5734280380127 298.7627537793555 683.5209856477841 301.68005022946267Q682.4500793559725 304.6158105811528 681.2499257530803 307.1453650980179Q680.0682360517711 309.65645571330003 678.9973297599596 311.92751560800366Q677.9264234681482 314.1801116011244 677.2617230111617 316.45117149582813L677.2617230111617 316.45117149582813Q677.132475700081 316.8389134290702 677.0032283890004 317.3005109686442Q676.8739810779196 317.78057240980104 676.5970225541753 317.78057240980104L676.5970225541753 317.78057240980104Q676.3385279320139 317.78057240980104 676.2092806209332 317.2451192638953Q676.0800333098525 316.7096661179895 676.0800333098525 316.04496566100306L676.0800333098525 316.04496566100306Q675.8030747861081 311.5213097731787 677.0032283890004 307.33000411384745Q678.2033819918925 303.1571623560992 679.5327829058654 298.6888981730237Q680.8621838198383 294.23909789153106 681.5268842768247 289.3277000704645Q682.1915847338112 284.397838347815 680.991431130919 278.415534234937L680.991431130919 278.415534234937Q679.7912775280269 272.0454881888169 675.1383743291217 269.92213950677683Q670.4854711302165 267.78032692315384 664.5031670173385 270.18063412893827L664.5031670173385 270.18063412893827Q663.7092192492714 270.5868399637633 662.3798183352985 271.3807877318304Q661.0504174213256 272.17473549989757 659.7948721136845 273.50413641387047Q658.5208629044605 274.8335373278434 657.468420514232 276.6245357813902Q656.3975142224205 278.415534234937 656.1390196002591 280.55734681856L656.1390196002591 280.55734681856Q657.7269151363934 278.15703961277563 659.8502638184334 276.0336909307356Q661.9736125004733 273.91034224869554 664.3739197062578 272.6363330394715Q666.7742269120422 271.3807877318304 669.2299258225755 271.1038292080861Q671.6856247331087 270.8453345859247 674.085931938893 272.0454881888169L674.085931938893 272.0454881888169Q676.8739810779196 273.50413641387047 677.9264234681482 276.08908263548443Q678.9973297599596 278.69249275868134 679.1265770710404 280.9450887518021ZM652.0031056456767 284.5455495604787L652.0031056456767 284.5455495604787Q650.5444574206231 289.58619469262595 648.0887585100899 294.5160564152754Q645.6330595995566 299.42745423634193 644.0267001618394 303.9511101241664L644.0267001618394 303.9511101241664Q643.8974528507587 304.2096047463278 643.5651026222654 304.948160809646Q643.2327523937722 305.6682529713814 642.6972992478665 305.5390056603007L642.6972992478665 305.5390056603007Q642.4388046257051 305.40975834922 642.3649490193732 304.6712022859017Q642.3095573146244 303.9511101241664 642.3095573146244 303.54490428934133L642.3095573146244 303.54490428934133Q642.3095573146244 301.4215556073013 643.0296494763596 297.89495040495655Q643.768205539678 294.36834520261175 644.5621533077451 292.115749209491L644.5621533077451 292.115749209491Q644.8391118314894 291.3218014414239 645.5592039932247 288.0536908612405Q646.297760056543 284.8040441826401 646.8886049071976 280.9450887518021Q647.4979136594352 277.0861333209641 647.6825526752648 273.50413641387047Q647.8856555926773 269.92213950677683 646.9624605135294 268.3157800690596L646.9624605135294 268.3157800690596Q646.4270073676237 267.39258498991177 646.9624605135294 267.39258498991177L646.9624605135294 267.39258498991177Q647.3502024467716 267.39258498991177 648.0149029037581 268.0572854468982L648.0149029037581 268.0572854468982Q649.6212623414752 269.5159336719518 650.618313026955 271.63928235399186Q651.6153637124346 273.7626310360319 652.0769612520086 276.08908263548443Q652.5385587915824 278.415534234937 652.4831670868335 280.6865941296407Q652.4093114805017 282.93919012276143 652.0031056456767 284.5455495604787ZM679.1265770710404 328.54502703266485L679.1265770710404 328.54502703266485Q678.868082448879 328.67427434374565 678.0741346808118 328.41577972158416L678.0741346808118 328.41577972158416Q677.6679288459868 328.2680685089206 677.4094342238253 328.1388211978399L677.4094342238253 328.1388211978399Q675.5445801639468 326.9386675949477 674.2151792499739 325.4246276651452Q672.885778336001 323.8921238337598 671.556377422028 320.16241571400246L671.556377422028 320.16241571400246Q671.150171587203 318.83301480002956 670.9470686697905 316.7835217243214Q670.7624296539609 314.71556474703016 670.8916769650416 312.7214633760708Q671.0209242761223 310.72736200511156 671.3532745046155 309.3241054848068Q671.6856247331087 307.93931286608506 672.3503251900952 307.93931286608506L672.3503251900952 307.93931286608506Q672.6088198122566 307.93931286608506 672.9411700407499 309.4718166974705Q673.273520269243 310.98585662727294 673.6058704977363 312.9799579982323Q673.9382207262295 314.97405936919165 674.3444265610545 316.9681607401509Q674.7506323958796 318.96226211111025 675.009127018041 319.9039210918411L675.009127018041 319.9039210918411Q675.6738274750275 321.89802246280044 676.3385279320139 323.8921238337598Q677.0032283890004 325.88622520471915 678.4618766140538 327.34487342977275L678.4618766140538 327.34487342977275Q678.7388351377983 327.6033680519341 678.9973297599596 328.083429493091Q679.2558243821211 328.54502703266485 679.1265770710404 328.54502703266485ZM643.2327523937722 328.80352165482634L643.2327523937722 328.80352165482634Q639.1153023407728 326.01547251579984 636.918098052401 322.6919702308676Q634.720893764029 319.3684679459353 633.9269459959619 315.7864710388417Q633.1329982278947 312.18601023016515 633.3361011453073 308.4747660119908Q633.5392040627198 304.74505789223355 634.333151830787 301.1630609851399L634.333151830787 301.1630609851399Q635.3855942210155 296.3624465735711 637.0473453634817 291.6541516699171Q638.7090965059477 286.92739286468014 640.2416003373331 282.4775925831875Q641.7741041687186 278.0277923016949 642.6419075431176 273.7626310360319Q643.5097109175165 269.5159336719518 642.8450104605301 265.6569782411138L642.8450104605301 265.6569782411138Q642.8450104605301 265.121525095208 642.9742577716108 265.121525095208L642.9742577716108 265.121525095208Q643.2327523937722 265.121525095208 643.6389582285972 265.7862255521945L643.6389582285972 265.7862255521945Q646.0208015327987 270.0513868178575 645.891554221718 274.575042705682Q645.7623069106373 279.08023469192347 644.4329059966644 283.8069934971604Q643.1035050826915 288.5337523023974 641.183259318064 293.37129451713207Q639.2445496518535 298.2273006334498 638.192107261625 303.1571623560992L638.192107261625 303.1571623560992Q637.5274068046385 306.20370611728714 637.3243038872259 309.6010640085512Q637.1212009698135 312.9799579982323 637.7859014267999 316.30346028316444Q638.4506018837864 319.6269625680967 639.9831057151717 322.8212175419483Q641.5156095465572 326.01547251579984 644.174411374503 328.54502703266485L644.174411374503 328.54502703266485Q644.6914006188258 328.80352165482634 644.4329059966644 329.0804801785706L644.4329059966644 329.0804801785706Q644.174411374503 329.338974800732 643.8420611460098 329.1358718833195Q643.5097109175165 328.93276896590703 643.2327523937722 328.80352165482634ZM648.2918614275023 329.338974800732L648.2918614275023 329.338974800732Q647.8856555926773 329.5974694228935 647.2209551356909 328.93276896590703L647.2209551356909 328.93276896590703Q645.7623069106373 327.8803265756784 644.3590503903325 326.6801729727863Q642.9742577716108 325.4800193698941 641.6448568576379 322.8212175419483L641.6448568576379 322.8212175419483Q641.1094037117322 321.89802246280044 640.8509090895707 320.43937423774685Q640.5739505658264 318.96226211111025 640.5739505658264 317.57746949238856Q640.5739505658264 316.17421297208375 640.7770534832389 315.2510178929359Q640.9801564006515 314.3093589122052 641.3678983338935 314.3093589122052L641.3678983338935 314.3093589122052Q641.9033514797993 314.4570701248688 642.2357017082925 315.7864710388417Q642.5680519367858 317.1158719528146 642.8450104605301 317.50361388605666L642.8450104605301 317.50361388605666Q643.3619997048529 318.96226211111025 643.768205539678 320.23627132033425Q644.174411374503 321.49181662797537 644.6914006188258 322.6919702308676L644.6914006188258 322.6919702308676Q645.5038122884758 324.55682429074625 646.297760056543 325.88622520471915Q647.0917078246101 327.21562611869206 648.1626141164217 328.54502703266485L648.1626141164217 328.54502703266485Q648.2918614275023 328.67427434374565 648.421108738583 328.93276896590703Q648.5503560496637 329.2097274896513 648.2918614275023 329.338974800732ZM709.9797566161612 251.8275159554791L709.9797566161612 251.8275159554791Q709.3150561591749 251.8275159554791 707.8379440325383 251.56902133331772Q706.3792958074847 251.3105267111563 706.3792958074847 250.3688677304255L706.3792958074847 250.3688677304255Q706.3792958074847 249.83341458451974 707.5794494103769 249.24256973386514Q708.7796030132691 248.65172488321053 710.3121068446545 247.580818591399Q711.826146774457 246.50991229958754 713.0263003773492 244.71891384604072Q714.2264539802413 242.9279153924939 714.2264539802413 240.1398662534674L714.2264539802413 240.1398662534674Q714.2264539802413 236.41015813371013 712.8970530662684 234.82226259757581L712.8970530662684 234.82226259757581Q712.638558444107 234.41605676275077 712.2323526092821 234.02831482950867Q711.826146774457 233.62210899468363 711.9738579871207 233.36361437252225L711.9738579871207 233.36361437252225Q712.2323526092821 233.36361437252225 712.5647028377753 233.49286168360294Q712.8970530662684 233.62210899468363 713.1555476884298 233.75135630576432L713.1555476884298 233.75135630576432Q715.8143495163756 235.2100045308179 717.2176060366803 237.6103117366023Q718.6208625569851 240.0106189423867 718.6208625569851 242.13396762442676L718.6208625569851 242.13396762442676Q718.6208625569851 246.38066498850682 716.552905579694 249.11332242278445Q714.4849486024028 251.8275159554791 709.9797566161612 251.8275159554791ZM705.0498948935118 246.50991229958754L705.0498948935118 246.50991229958754Q704.3851944365254 246.65762351225118 703.9235968969515 246.50991229958754Q703.4619993573775 246.38066498850682 703.4619993573775 245.58671722043968L703.4619993573775 245.58671722043968Q703.4619993573775 244.51581092862818 704.2559471254447 243.5187602431485Q705.0498948935118 242.52170955766883 705.78845095683 241.34001985635962Q706.5085431185654 240.1398662534674 706.7855016423098 238.60736242208196Q707.0439962644712 237.07485859069658 705.9915538742426 234.82226259757581L705.9915538742426 234.82226259757581Q705.7145953504983 234.28680945167008 705.0498948935118 233.49286168360294Q704.3851944365254 232.6989139155358 704.6621529602697 232.4219553917914L704.6621529602697 232.4219553917914Q704.9206475824311 232.29270808071072 705.78845095683 232.62505830920395Q706.6562543312291 232.95740853769718 706.9147489533905 233.21590315985856L706.9147489533905 233.21590315985856Q709.1673449465112 234.28680945167008 710.3121068446545 236.2809108226294Q711.4384048412148 238.27501219358876 711.4384048412148 240.1398662534674L711.4384048412148 240.1398662534674Q711.4384048412148 242.6694207703325 709.3704478639237 244.2573163064668Q707.3209547882154 245.8452118426011 705.0498948935118 246.50991229958754ZM701.1909394626738 239.1982072727366L701.1909394626738 239.1982072727366Q701.1909394626738 238.6812180284138 701.6710009038306 237.739559047683Q702.1325984434046 236.81636396853517 702.9265462114718 236.81636396853517L702.9265462114718 236.81636396853517Q703.5912466684582 236.81636396853517 703.9974525032833 237.739559047683Q704.3851944365254 238.6812180284138 704.3851944365254 239.1982072727366L704.3851944365254 239.1982072727366Q704.3851944365254 239.73366041864233 703.9974525032833 240.67531939937317Q703.5912466684582 241.598514478521 702.9265462114718 241.598514478521L702.9265462114718 241.598514478521Q702.1325984434046 241.598514478521 701.6710009038306 240.67531939937317Q701.1909394626738 239.73366041864233 701.1909394626738 239.1982072727366ZM709.3150561591749 283.4746432686672L709.3150561591749 283.4746432686672Q709.0380976354305 281.6097892087885 708.4472527847759 278.15703961277563Q707.8379440325383 274.7042900167627 706.6562543312291 271.9162408777362L706.6562543312291 271.9162408777362Q706.3792958074847 271.25154042074973 705.843842661579 270.30988144001896Q705.3268534172562 269.3866863608711 705.0498948935118 269.5159336719518L705.0498948935118 269.5159336719518Q704.7914002713504 269.6451809830325 704.7914002713504 270.43912875109964Q704.7914002713504 271.25154042074973 705.0498948935118 273.2456417917091L705.0498948935118 273.2456417917091Q705.5853480394176 276.42143286397766 705.5114924330858 281.0189443581339Q705.4561007283369 285.59799195070724 704.8467919760992 291.04484291767955Q704.2559471254447 296.51015778623474 702.9265462114718 302.6217092101935Q701.5971452974989 308.7332606341522 699.6030439265395 314.84481205811085L699.6030439265395 314.84481205811085Q699.0675907806337 316.45117149582813 698.1443957014859 318.6299118826171Q697.2027367207552 320.8271161709889 696.1502943305265 323.28281508152224Q695.0793880387151 325.75697789363846 694.0823373532354 328.2126768041717Q693.0852866677558 330.6683757147049 692.54983352185 332.79172439674494L692.54983352185 332.79172439674494Q692.0328442775271 336.1152266816772 694.0269456484866 333.4564248537314L694.0269456484866 333.4564248537314Q697.6089425555801 329.4682221118128 700.673950218351 323.6151653100154Q703.7204939795389 317.78057240980104 705.9176982679107 311.1335678399366Q708.1149025562827 304.4865632700721 709.0380976354305 297.3041055543019Q709.9797566161612 290.12164783853166 709.3150561591749 283.4746432686672ZM713.0263003773492 286.133445096613L713.0263003773492 286.133445096613Q712.7678057551877 285.21025001746517 712.638558444107 285.00714710005263Q712.4908472314435 284.8040441826401 712.2323526092821 284.8040441826401L712.2323526092821 284.8040441826401Q711.9738579871207 284.8040441826401 711.9738579871207 285.87495047445157L711.9738579871207 285.87495047445157Q711.9738579871207 295.0330456595982 710.2382512383227 303.41565697826064Q708.5026444895248 311.79826829692297 705.4561007283369 319.7746737807604L705.4561007283369 319.7746737807604Q704.9206475824311 321.233322005814 703.3327520462968 324.8153189129076Q701.7263926085795 328.41577972158416 699.5291883202077 332.99482731415753Q697.3504479334188 337.5738749067308 694.9501407276343 342.5591283341291Q692.54983352185 347.5443817615276 690.5557321508907 351.80954302719056Q688.5616307799313 356.05624039127065 687.3060854722903 358.99200074296084Q686.0505401646492 361.9092971930679 686.0505401646492 362.1677918152294L686.0505401646492 362.1677918152294Q686.0505401646492 362.70324496113517 686.3090347868106 362.64785325638627Q686.567529408972 362.57399765005437 686.8444879327163 362.315503027893Q687.1029825548777 362.0385445041486 687.3799410786221 361.65080257090654Q687.6384357007835 361.2445967360816 687.7676830118642 361.1153494250008L687.7676830118642 361.1153494250008Q692.4205862107693 355.5207872453649 697.4796952444995 347.0273925172047Q702.5203403766467 338.51553388746163 706.4531514138165 328.87737726115813Q710.3674985494034 319.23922063485463 712.638558444107 309.3241054848068Q714.8911544372279 299.42745423634193 713.96795935808 291.1925541303432L713.96795935808 291.1925541303432Q713.6910008343357 288.5337523023974 713.0263003773492 286.133445096613ZM684.9796338728377 328.0095738867592L684.9796338728377 328.0095738867592Q683.114779812959 332.79172439674494 681.2499257530803 337.3892358909012Q679.4035355947847 341.9682834834746 678.0741346808118 346.8242895997922Q676.7447337668389 351.68029571610987 676.2092806209332 356.9978993720015Q675.6738274750275 362.315503027893 676.3385279320139 368.42705445185175L676.3385279320139 368.42705445185175Q676.3385279320139 369.0917549088382 676.5416308494264 370.01494998798603Q676.7447337668389 370.95660896871686 676.9293727826685 371.8798040478647Q677.132475700081 372.8029991270125 677.4094342238253 373.54155519033077Q677.6679288459868 374.2801112536491 677.7971761570675 374.4093585647298L677.7971761570675 374.4093585647298Q678.0741346808118 374.4093585647298 678.0741346808118 373.2092049618376L678.0741346808118 373.2092049618376Q678.2033819918925 366.96840622679815 678.9973297599596 361.37384404716227Q679.7912775280269 355.79774576910927 681.1945340483315 350.60938942429834Q682.5793266670532 345.42103307948753 684.5180363332638 340.4357796520891Q686.4382820978913 335.45052622469075 688.709341992595 330.26216987987993L688.709341992595 330.26216987987993Q691.3681438205408 324.68607160182694 694.285440270648 318.1129226382942Q697.2027367207552 311.5213097731787 699.4737966154588 304.41270766374026Q701.7263926085795 297.3041055543019 702.9265462114718 289.8631532163703Q704.126699814364 282.40373697685567 703.3327520462968 274.8335373278434L703.3327520462968 274.8335373278434Q703.0557935225524 273.3748891027898 702.7234432940593 271.4361794365793Q702.391093065566 269.5159336719518 701.7263926085795 267.52183230099246L701.7263926085795 267.52183230099246Q701.0616921515931 265.3984836189524 700.673950218351 265.3984836189524L700.673950218351 265.3984836189524Q700.3969916946066 265.3984836189524 700.5262390056873 267.52183230099246L700.5262390056873 267.52183230099246Q701.3386506753375 275.4982377848298 699.861538548701 283.6038905797479Q698.4028903236474 291.709543374666 695.8733358067823 299.5567015474226Q693.3622451915 307.40385972017936 690.3710931350611 314.64170914069837Q687.3799410786221 321.89802246280044 684.9796338728377 328.0095738867592ZM686.567529408972 349.02149388816406L686.567529408972 349.02149388816406Q686.567529408972 348.615288053339 686.1797874757299 348.4860407422583L686.1797874757299 348.4860407422583Q685.238128494999 348.3567934311776 684.1856861047705 350.35089480213696Q683.114779812959 352.3449961730963 682.1177291274794 355.3915399342842Q681.1206784419996 358.4565475970551 680.5298335913451 362.1677918152294Q679.9205248391074 365.8974999349866 679.9205248391074 369.2210022199189L679.9205248391074 369.2210022199189Q679.9205248391074 370.2919085117304 680.2528750676007 372.21215427635786Q680.585225296094 374.13240004098543 680.8621838198383 375.20330633279696L680.8621838198383 375.20330633279696Q680.8621838198383 375.46180095495833 681.0652867372509 376.2003570182766Q681.2499257530803 376.9389130815948 681.5268842768247 376.9389130815948L681.5268842768247 376.9389130815948Q681.9146262100669 377.0681603926756 681.9884818163987 376.53270724676986Q682.0623374227305 375.9972541008641 682.0623374227305 375.7387594787027L682.0623374227305 375.7387594787027Q682.3208320448919 372.67375181593184 682.5793266670532 369.81184707057355Q682.8562851907976 366.96840622679815 683.5209856477841 364.16189318618876L683.5209856477841 364.16189318618876Q683.7794802699455 363.10945079596013 684.3149334158512 360.9122465075883Q684.850386561757 358.71504221921646 685.3858397076627 356.3885906197638Q685.9028289519855 354.0621390203113 686.3090347868106 352.01264594460304Q686.7152406216356 349.9446889673119 686.567529408972 349.02149388816406ZM772.184641049143 281.8867477325329L772.184641049143 281.8867477325329Q771.1321986589145 287.20435138842447 768.6026441420494 292.5219550443161Q766.0730896251844 297.83955870020765 763.8204936320635 302.4924618991128L763.8204936320635 302.4924618991128Q763.6727824193999 302.7509565212742 763.211184879826 303.41565697826064Q762.7495873402521 304.0803574352471 762.4910927180907 304.0803574352471L762.4910927180907 304.0803574352471Q762.0848868832655 303.9511101241664 762.0848868832655 303.2125540608481Q762.0848868832655 302.4924618991128 762.0848868832655 302.2155033753684L762.0848868832655 302.2155033753684Q762.2141341943463 301.0153497724762 762.5464844228395 299.35359863001014Q762.8788346513327 297.691847487544 763.1557931750771 295.9008490339972Q763.4142877972386 294.10985058045037 763.7466380257317 292.44809943798424Q764.0789882542249 290.7863482955181 764.48519408905 289.4569473815452L764.48519408905 289.4569473815452Q765.6668837903593 284.9332914937208 766.4792954600093 281.6836448151204Q767.2732432280765 278.415534234937 767.6609851613186 275.7567324069912Q768.0671909961436 273.09793057904545 768.1410466024754 270.71608727484397Q768.1964383072243 268.3157800690596 767.8086963739822 265.5277309300331L767.8086963739822 265.5277309300331Q767.6609851613186 264.45682463822163 767.9379436850629 264.1983300160602L767.9379436850629 264.1983300160602Q768.1964383072243 264.0690827049795 768.6026441420494 264.45682463822163Q768.9903860752916 264.86303047304665 769.2673445990358 265.2692363078717L769.2673445990358 265.2692363078717Q771.5199405921567 268.85123321496536 772.3138883602237 273.17178618537724Q773.1263000298738 277.4923391557892 772.184641049143 281.8867477325329ZM774.8434428770888 272.17473549989757L775.3788960229946 272.9686832679647Q777.1145027717926 275.4982377848298 777.1145027717926 279.6156878378292Q777.1145027717926 283.7331378908286 776.3020911021424 288.0536908612405Q775.5081433340753 292.37424383165245 774.307989731183 296.3624465735711Q773.1263000298738 300.35064931548976 772.590846883968 302.7509565212742L772.590846883968 302.7509565212742Q771.5199405921567 307.40385972017936 769.6550865322779 312.05676291908446Q767.8086963739822 316.7096661179895 766.4792954600093 320.29166302508315L766.4792954600093 320.29166302508315Q766.3315842473457 320.6978688599082 766.0730896251844 321.1594663994822Q765.8145950030229 321.62106393905606 765.5376364792785 321.62106393905606L765.5376364792785 321.62106393905606Q765.2791418571171 321.62106393905606 765.2791418571171 321.1040746947333Q765.2791418571171 320.56862154882754 765.2791418571171 320.16241571400246L765.2791418571171 320.16241571400246Q764.872936022292 312.8507106871516 766.8670373932514 305.87135588879386Q768.8611387642108 298.89200109043617 771.1321986589145 291.709543374666L771.1321986589145 291.709543374666Q772.4615995728874 287.33359869950516 773.6432892741966 282.73608720534895Q774.8434428770888 278.15703961277563 774.7141955660081 272.7101886458033L774.7141955660081 272.7101886458033Q774.7141955660081 272.17473549989757 774.8434428770888 272.17473549989757L774.8434428770888 272.17473549989757ZM762.8788346513327 270.71608727484397L762.8788346513327 270.71608727484397Q754.7731818564147 274.03958955977623 749.1232279720299 280.2249965900668Q743.473274087645 286.3919397187744 740.4082664248742 294.10985058045037L740.4082664248742 294.10985058045037Q739.0788655109013 297.56260017646326 738.4141650539149 300.2952576107409Q737.7494645969284 303.00945114343557 737.3617226636864 306.20370611728714L737.3617226636864 306.20370611728714Q737.2324753526057 306.8684065742736 737.7494645969284 307.53310703126Q738.2849177428342 308.19780748824644 738.82037088874 307.53310703126L738.82037088874 307.53310703126Q741.2206780945244 304.6158105811528 744.9319223126987 300.0921546933284Q748.6616304324559 295.56849880550396 752.3728746506303 290.52785367335673Q756.1025827703876 285.46874463962655 759.0937348268266 280.2803882948156Q762.0848868832655 275.09203195000475 762.8788346513327 270.71608727484397ZM753.9792340883475 315.7864710388417L753.9792340883475 315.7864710388417Q751.9851327173882 318.5745201778682 750.1202786575095 320.9563634820696Q748.255424597631 323.35667068785403 746.0028286045101 325.1476691414008Q743.7317687098064 326.9386675949477 740.94371957078 328.0095738867592Q738.1556704317535 329.0804801785706 734.5736735246599 329.2097274896513L734.5736735246599 329.2097274896513Q728.5913694117819 329.4682221118128 725.4525061426791 326.14471982688053Q722.3321067751594 322.8212175419483 721.1319531722672 318.0390670319624Q719.950263470958 313.25691652197656 720.2826136994513 308.1424157834976Q720.6149639279445 303.00945114343557 721.667406318173 299.6859488585033L721.667406318173 299.6859488585033Q723.1260545432266 295.0330456595982 725.1940115205177 290.86020390184996Q727.261968497809 286.66889824251876 729.5884200972615 283.27154035125466Q731.914871696714 279.89264636157355 734.3705706072474 277.41848354945733Q736.8262695177806 274.96278463892406 739.226576723565 273.63338372495116L739.226576723565 273.63338372495116Q739.3558240346457 273.63338372495116 739.8174215742197 273.3748891027898Q740.2790191137935 273.09793057904545 740.2790191137935 273.50413641387047L740.2790191137935 273.50413641387047Q740.4082664248742 273.50413641387047 740.1497718027128 273.91034224869554Q739.8912771805515 274.2980841819376 739.6143186568071 274.575042705682L739.6143186568071 274.575042705682Q732.7088194647812 281.7390365198692 728.6467611165307 290.7863482955181Q724.6031666698632 299.833660071167 724.0677135239574 309.39796109113865L724.0677135239574 309.39796109113865Q723.9384662128767 311.79826829692297 724.2708164413699 314.58631743594947Q724.6031666698632 317.37436657497597 725.6002173553428 319.8300654855093Q726.5972680408224 322.2857643960425 728.4436581991181 323.9475155385086Q730.3085122589969 325.60926668097477 733.5027672328483 325.60926668097477L733.5027672328483 325.60926668097477Q736.0323217497134 325.60926668097477 738.1556704317535 324.75992720815873Q740.2790191137935 323.8921238337598 742.1438731736722 322.488867313455Q744.0087272335509 321.1040746947333 745.5412310649363 319.4423235522671Q747.0552709947387 317.78057240980104 748.255424597631 316.30346028316444L748.255424597631 316.30346028316444Q750.9142264255768 312.9799579982323 753.1852863202804 309.39796109113865L753.1852863202804 309.39796109113865Q753.1852863202804 306.73915926319285 753.5176365487737 304.2096047463278Q753.8499867772668 301.68005022946267 754.5146872342533 299.16895961418055L754.5146872342533 299.16895961418055Q754.9024291674954 297.3041055543019 755.2347793959887 296.1778075577415Q755.5671296244818 295.0330456595982 755.8994798529751 294.0359949741185Q756.2318300814683 293.03894428863885 756.5641803099614 291.9126462920785Q756.8965305384547 290.7863482955181 757.5612309954412 288.9214942356395L757.5612309954412 288.9214942356395Q755.4378823134011 292.6512023553968 753.36992533611 295.9008490339972Q751.3204322604017 299.16895961418055 748.9939806609492 302.16011167061953Q746.6675290614967 305.15126372705856 744.2118301509634 307.9947045708339Q741.7376673388471 310.85660931619225 738.82037088874 313.7923696678823L738.82037088874 313.7923696678823Q736.5677748956192 316.04496566100306 735.0906627689826 315.2510178929359Q733.632014543929 314.4570701248688 733.3735199217676 311.5213097731787L733.3735199217676 311.5213097731787Q733.0965613980234 306.9976538853543 733.8351174613416 302.7509565212742Q734.5736735246599 298.5042591571941 736.4200636829555 293.85135595828893L736.4200636829555 293.85135595828893Q738.1556704317535 289.58619469262595 740.7406166533674 285.59799195070724Q743.3440267765643 281.6097892087885 746.7229207662455 278.36014253018817Q750.1202786575095 275.09203195000475 754.2377287105089 272.7655803505522Q758.3551787635083 270.43912875109964 763.0080819624134 269.6451809830325L763.0080819624134 269.6451809830325Q763.2850404861579 268.1865327579789 763.4881434035703 267.1156264661674Q763.6727824193999 266.06318407593886 763.8204936320635 264.99227778412734L763.8204936320635 264.99227778412734Q764.0789882542249 263.53362955907374 764.0789882542249 263.53362955907374L764.0789882542249 263.53362955907374Q764.3374828763863 263.40438224799306 764.6698331048796 263.7921241812352Q765.0021833333728 264.1983300160602 765.2791418571171 264.86303047304665L765.2791418571171 264.86303047304665Q766.8670373932514 269.2574390497904 766.3315842473457 273.63338372495116Q765.8145950030229 278.0277923016949 764.4113384827182 282.55144818951936Q763.0080819624134 287.05664017576083 761.1616918041177 291.7833989809978Q759.2968377442392 296.51015778623474 758.0966841413469 301.2923082962206L758.0966841413469 301.2923082962206Q756.5087886052127 308.06856017716575 757.2288807669479 315.3064095976848Q757.9674368302663 322.5627229197869 762.8788346513327 328.41577972158416L762.8788346513327 328.41577972158416Q763.2850404861579 328.93276896590703 763.2850404861579 328.93276896590703L763.2850404861579 328.93276896590703Q763.1557931750771 329.0804801785706 762.4910927180907 328.67427434374565L762.4910927180907 328.67427434374565Q758.6321372872526 326.2739671379612 756.6934276210422 322.89507314828006Q754.7731818564147 319.497715257016 753.9792340883475 315.7864710388417ZM758.6321372872526 268.7219859038847L758.6321372872526 268.7219859038847Q758.8906319094141 268.98048052604605 758.5582816809208 269.10972783712674Q758.2259314524276 269.2574390497904 757.1734890621991 269.5159336719518L757.1734890621991 269.5159336719518Q755.4378823134011 270.0513868178575 752.9821834028678 271.5100350429111Q750.5264844923346 272.9686832679647 747.793827058057 275.23974316266845Q745.0611696237794 277.4923391557892 742.4023677958336 280.48349121222816Q739.7435659678878 283.4746432686672 737.7494645969284 286.92739286468014L737.7494645969284 286.92739286468014Q735.7553632259691 290.52785367335673 734.3705706072474 293.9806032693697Q732.9673140869427 297.4333528653826 732.0995107125436 300.2952576107409Q731.2501712397276 303.1571623560992 730.8439654049025 305.2066554318074Q730.4377595700776 307.2746124090986 730.4377595700776 308.06856017716575L730.4377595700776 308.06856017716575Q730.4377595700776 310.0626615481251 730.4377595700776 312.25986583649694Q730.4377595700776 314.4570701248688 730.9732127159832 316.17421297208375Q731.5086658618891 317.9098197208817 732.8380667758619 318.83301480002956Q734.1674676898348 319.7746737807604 736.8262695177806 319.3684679459353L736.8262695177806 319.3684679459353Q736.9555168288613 319.3684679459353 737.490969974767 319.16536502852284Q738.0264231206728 318.96226211111025 738.5618762665786 318.77762309528066Q739.0788655109013 318.5745201778682 739.5589269520583 318.4452728667875Q740.0205244916322 318.2975616541238 740.1497718027128 318.2975616541238L740.1497718027128 318.2975616541238Q740.2790191137935 318.5745201778682 739.9466688853004 318.96226211111025Q739.6143186568071 319.3684679459353 739.0788655109013 319.8300654855093Q738.5618762665786 320.29166302508315 738.0818148254216 320.6978688599082Q737.6202172858477 321.1040746947333 737.490969974767 321.233322005814L737.490969974767 321.233322005814Q734.1674676898348 323.22742337677334 731.914871696714 322.4334756087062Q729.6438118020103 321.62106393905606 728.3882664943693 319.4423235522671Q727.1142572851453 317.2451192638953 726.6526597455713 314.2539672074563Q726.1910622059975 311.26281515101726 726.3203095170782 308.8625079452329L726.3203095170782 308.8625079452329Q726.5972680408224 304.2096047463278 727.7789577421318 299.63055715375447Q728.979111345024 295.0330456595982 730.8439654049025 290.3801424606931L730.8439654049025 290.3801424606931Q732.3026136299561 286.79814555359945 735.2383739816463 283.0130457290933Q738.1556704317535 279.2279459045871 741.8115229451789 276.0336909307356Q745.4673754586045 272.839435956884 749.4555782005232 270.77147897959287Q753.4437809424418 268.7219859038847 757.1734890621991 268.592738592804L757.1734890621991 268.592738592804Q758.5028899761719 268.592738592804 758.6321372872526 268.7219859038847ZM766.4792954600093 328.41577972158416L766.4792954600093 328.41577972158416Q766.7377900821707 328.80352165482634 766.60854277109 328.93276896590703L766.60854277109 328.93276896590703Q766.202336936265 328.93276896590703 765.5376364792785 328.67427434374565L765.5376364792785 328.67427434374565Q765.1498945460364 328.41577972158416 763.4142877972386 327.08637880761125Q761.6786810484406 325.75697789363846 760.8847332803734 322.8212175419483L760.8847332803734 322.8212175419483Q760.6262386582121 321.76877515171975 760.4231357407995 320.10702400925356Q760.220032823387 318.4452728667875 760.220032823387 316.9681607401509Q760.220032823387 315.5095125150973 760.4231357407995 314.4570701248688Q760.6262386582121 313.38616383305725 761.0139805914541 313.38616383305725L761.0139805914541 313.38616383305725Q761.4201864262792 313.38616383305725 761.8817839658531 314.97405936919165Q762.343381505427 316.5804188069088 762.4910927180907 316.9681607401509L762.4910927180907 316.9681607401509Q762.8788346513327 318.83301480002956 763.211184879826 320.23627132033425Q763.5435351083192 321.62106393905606 763.9497409431442 322.8212175419483L763.9497409431442 322.8212175419483Q764.48519408905 324.27986576700187 765.334533561866 326.14471982688053Q766.202336936265 328.0095738867592 766.4792954600093 328.41577972158416ZM825.4899249191395 282.55144818951936L825.4899249191395 282.55144818951936Q825.4899249191395 289.1984527593838 823.6989264655926 296.43630217990295Q821.9079280120459 303.674151600422 818.9906315619387 310.72736200511156Q816.0548712102486 317.78057240980104 812.2697713857424 324.0952267511723Q808.4846715612362 330.4098810925435 804.4964688193174 334.915073078785L804.4964688193174 334.915073078785Q803.037820594264 336.5214325165023 802.7608620705196 336.3921852054216Q802.5023674483582 336.2444739927579 803.037820594264 334.3980838344622L803.037820594264 334.3980838344622Q803.8317683623311 332.2562712508392 805.0873136699722 329.5974694228935Q806.3613228791962 326.9386675949477 807.6168681868372 324.35372137333366Q808.8724134944783 321.76877515171975 810.1464227037023 319.3684679459353Q811.4019680113435 316.9681607401509 812.1959157794106 315.3802652040166L812.1959157794106 315.3802652040166Q813.1375747601414 313.38616383305725 814.3377283630336 310.13651715445695Q815.5194180643427 306.8684065742736 816.6641799624861 302.8802038323549Q817.7904779590465 298.89200109043617 818.8429203492751 294.5160564152754Q819.9138266410865 290.12164783853166 820.7077744091537 286.05958949028116Q821.5017221772208 282.0159950436136 821.9817836183777 278.61863715234955Q822.4433811579516 275.23974316266845 822.3141338468708 273.09793057904545L822.3141338468708 273.09793057904545Q822.1664226342073 270.71608727484397 822.3695255516197 269.97753121152573Q822.5726284690323 269.2574390497904 822.8311230911938 269.44207806561997Q823.1080816149381 269.6451809830325 823.4404318434313 270.30988144001896Q823.7727820719244 270.9745818970054 824.0312766940859 271.5100350429111L824.0312766940859 271.5100350429111Q824.9729356748167 274.1688368708569 825.2314302969781 277.4923391557892Q825.4899249191395 280.8158414407214 825.4899249191395 282.55144818951936ZM799.3081124745066 319.23922063485463L799.3081124745066 319.23922063485463Q798.3849173953588 320.29166302508315 796.7785579576416 321.233322005814Q795.1906624215073 322.1565170849618 793.7320141964537 322.1565170849618L793.7320141964537 322.1565170849618Q790.5377592226022 322.1565170849618 788.469802245311 320.29166302508315Q786.4203091696028 318.4452728667875 785.2201555667106 315.7126154325099Q784.0200019638183 312.9799579982323 783.5584044242444 309.9334142370444Q783.0968068846705 306.8684065742736 783.0968068846705 304.4865632700721L783.0968068846705 304.4865632700721Q783.0968068846705 300.8861024613955 783.8168990464059 296.1778075577415Q784.5554551097241 291.45104875250456 786.0879589411095 286.7242899472676Q787.601998870912 282.0159950436136 789.7992031592839 277.8246893842824Q791.9964074476558 273.63338372495116 795.0614151104267 271.1038292080861L795.0614151104267 271.1038292080861Q795.8553628784937 270.5868399637633 796.5200633354802 270.1067785226064Q797.1847637924667 269.6451809830325 796.1138575006552 271.5100350429111L796.1138575006552 271.5100350429111Q795.319909732588 272.9686832679647 794.5813536692697 274.03958955977623Q793.8612615075344 275.09203195000475 793.4550556727092 276.42143286397766L793.4550556727092 276.42143286397766Q791.3317069906693 280.2803882948156 790.0761616830282 284.5455495604787Q788.8021524738042 288.79224692455875 788.0082047057371 293.1866555013025L788.0082047057371 293.1866555013025Q786.808051102845 299.02124840151686 786.808051102845 304.87430520331424L786.808051102845 304.87430520331424Q786.808051102845 306.9976538853543 787.0111540202574 309.52720840221934Q787.2142569376699 312.05676291908446 788.0082047057371 314.3093589122052Q788.8021524738042 316.5804188069088 790.4639036162703 318.1129226382942Q792.1256547587365 319.6269625680967 795.0614151104267 319.6269625680967L795.0614151104267 319.6269625680967Q795.8553628784937 319.6269625680967 796.9078052687223 319.23922063485463Q797.9787115605338 318.83301480002956 798.6434120175202 318.4452728667875L798.6434120175202 318.4452728667875Q799.7143183093317 318.0390670319624 799.7143183093317 318.2975616541238Q799.7143183093317 318.5745201778682 799.3081124745066 319.23922063485463ZM828.9611384167354 284.8040441826401L828.9611384167354 284.8040441826401Q829.4781276610581 286.79814555359945 829.4781276610581 289.4569473815452L829.4781276610581 289.4569473815452Q829.4781276610581 294.9037983485175 827.8902321249238 301.4954112136331Q826.3023365887896 308.06856017716575 823.6989264655926 315.12177058185523Q821.1139802439787 322.1565170849618 817.587375041634 329.338974800732Q814.0607698392892 336.5214325165023 810.275670014783 343.1684370863668Q806.4905701902769 349.8154416562312 802.5023674483582 355.5946428516967Q798.5141647064395 361.37384404716227 794.9137038977628 365.63900531282525L794.9137038977628 365.63900531282525Q794.7844565866822 365.76825262390594 794.452106358189 366.155994557148Q794.1197561296958 366.5622003919731 793.7874059012026 366.89455062046636Q793.4550556727092 367.22690084895953 793.1965610505479 367.3561481600402Q792.9196025268036 367.4853954711209 792.9196025268036 366.96840622679815L792.9196025268036 366.96840622679815Q792.9196025268036 366.69144770305377 794.5813536692697 363.4418010244534Q796.2431048117357 360.17369044427005 798.7726593286009 355.3361482295353Q801.302213845466 350.48014211321765 804.293365901905 344.83018822883287Q807.284517958344 339.1802343444481 810.0725670973706 333.99187799963715Q812.860616236397 328.80352165482634 814.9285732136882 324.8153189129076Q816.9965301909793 320.8271161709889 817.6612306479658 319.3684679459353L817.6612306479658 319.3684679459353Q821.5017221772208 310.85660931619225 824.2343796114984 302.2893589817003Q826.9670370457761 293.7036447456253 828.0194794360045 284.5455495604787L828.0194794360045 284.5455495604787Q828.1487267470853 283.4746432686672 828.2225823534171 283.40078766233535Q828.296437959749 283.3453959575865 828.9611384167354 284.8040441826401ZM820.3200324759116 274.96278463892406L820.3200324759116 274.96278463892406Q820.3200324759116 282.40373697685567 818.2520754986205 290.04779223219987Q816.1841185213293 297.691847487544 813.1375747601414 305.15126372705856Q810.0725670973706 312.5922160649901 806.4167145839451 319.5715708633478Q802.7608620705196 326.5509256617056 799.4373597855874 332.53322977458356L799.4373597855874 332.53322977458356Q793.4550556727092 343.70389023227244 789.33760561971 355.1884370168717Q785.2201555667106 366.69144770305377 783.6137961289933 379.19150907471555L783.6137961289933 379.19150907471555Q783.3553015068319 380.65015729976915 783.2260541957512 380.39166267760777L783.2260541957512 380.39166267760777Q783.0968068846705 380.39166267760777 782.893703967258 379.6531066142895Q782.6906010498454 378.9330144525542 782.5613537387648 378.06521107815524Q782.4321064276841 377.1974077037563 782.3582508213523 376.27421262460837Q782.2843952150204 375.33255364387765 782.2843952150204 374.6678531868912L782.2843952150204 374.6678531868912Q782.2843952150204 368.6855490740131 783.6137961289933 362.57399765005437Q784.9431970429662 356.4624462260957 787.0850096265892 350.60938942429834Q789.2083583086293 344.7563326225011 791.7933045302432 339.1802343444481Q794.3967146534401 333.5856721648121 797.0555164813859 328.67427434374565L797.0555164813859 328.67427434374565L793.4550556727092 328.67427434374565Q789.4668529307907 328.67427434374565 786.5495564806835 326.809420283867Q783.6137961289933 324.9445662239883 781.7674059706976 321.89802246280044Q779.9025519108189 318.83301480002956 778.9055012253393 314.71556474703016Q777.9084505398596 310.59811469403087 777.9084505398596 306.0744588062064L777.9084505398596 306.0744588062064Q777.9084505398596 304.3388520574085 778.2961924731017 301.21845268988875Q778.7023983079268 298.098053322369 779.496346075994 294.700695431105Q780.2902938440611 291.3218014414239 781.4904474469533 288.0536908612405Q782.6906010498454 284.8040441826401 784.1492492748991 282.80994281168074L784.1492492748991 282.80994281168074Q785.2201555667106 281.35129458662715 785.3494028777912 281.6097892087885Q785.4786501888719 281.8867477325329 785.0909082556299 283.3453959575865L785.0909082556299 283.3453959575865Q783.3553015068319 288.38604108973374 782.3582508213523 293.85135595828893Q781.3612001358725 299.29820692526124 781.3612001358725 304.6158105811528L781.3612001358725 304.6158105811528Q781.3612001358725 307.66235434234073 781.7674059706976 311.26281515101726Q782.1551479039397 314.84481205811085 783.4291571131637 317.83596411454994Q784.6847024208048 320.8271161709889 787.0850096265892 322.8212175419483Q789.4668529307907 324.8153189129076 793.58430298379 324.8153189129076L793.58430298379 324.8153189129076Q796.5200633354802 324.8153189129076 798.9019066396816 322.8212175419483Q801.302213845466 320.8271161709889 803.2224596100934 317.9098197208817Q805.161169276304 314.97405936919165 806.6936731076894 311.5213097731787Q808.2077130374919 308.06856017716575 809.4078666403841 305.15126372705856L809.4078666403841 305.15126372705856Q808.0784657264112 306.9976538853543 806.2874672728644 308.80711624048405Q804.4964688193174 310.59811469403087 802.5023674483582 312.05676291908446Q800.5082660773988 313.51541114413806 798.5141647064395 314.4570701248688Q796.5200633354802 315.3802652040166 794.6552092756016 315.3802652040166L794.6552092756016 315.3802652040166Q792.7903552157229 315.3802652040166 791.7379128254943 314.1801116011244Q790.6670065336829 312.9799579982323 790.0761616830282 311.1889595446855Q789.4668529307907 309.39796109113865 789.33760561971 307.53310703126Q789.2083583086293 305.6682529713814 789.2083583086293 304.2096047463278L789.2083583086293 304.2096047463278Q789.2083583086293 299.42745423634193 789.7992031592839 294.5714481200243Q790.4085119115214 289.71544200370664 791.7379128254943 285.00714710005263Q793.0673137394672 280.2803882948156 795.2460541262562 275.95983532440374Q797.443258414628 271.63928235399186 800.6375133884795 268.0572854468982L800.6375133884795 268.0572854468982Q800.896008010641 267.65107961207315 801.302213845466 267.3187293835799Q801.7084196802911 266.9863791550867 802.0407699087843 266.857131844006Q802.3731201372775 266.7278845329253 802.3731201372775 266.93098745033785Q802.3731201372775 267.1156264661674 801.8376669913717 268.0572854468982L801.8376669913717 268.0572854468982Q797.9787115605338 275.23974316266845 795.5230126500005 284.01009641457296Q793.0673137394672 292.78044966647747 793.0673137394672 301.0153497724762L793.0673137394672 301.0153497724762Q793.0673137394672 301.82776144212636 793.1227054442161 303.6187598956731Q793.1965610505479 305.40975834922 793.5289112790412 307.2746124090986Q793.8612615075344 309.1394664689773 794.5813536692697 310.524259087699Q795.319909732588 311.92751560800366 796.5200633354802 311.92751560800366L796.5200633354802 311.92751560800366Q796.9078052687223 311.92751560800366 797.5725057257087 311.5213097731787L797.5725057257087 311.5213097731787Q803.1670679053447 308.7332606341522 807.0260233361826 303.82186281308566Q810.8665148654377 298.89200109043617 813.3960693823028 292.8543052728093Q815.9256238991678 286.79814555359945 817.0519218957282 280.35424390114747Q818.1782198922886 273.91034224869554 818.3259311049522 268.0572854468982L818.3259311049522 268.0572854468982Q818.3259311049522 265.9339367648582 818.5844257271136 265.7862255521945Q818.8429203492751 265.6569782411138 819.5076208062615 268.0572854468982L819.5076208062615 268.0572854468982Q820.3200324759116 271.9162408777362 820.3200324759116 274.96278463892406ZM794.9137038977628 353.6743970870692L794.9137038977628 353.6743970870692Q794.9137038977628 354.59759216621705 794.3228590471083 356.7209408482571Q793.7320141964537 358.84428953029715 792.9196025268036 361.2445967360816Q792.1256547587365 363.6449039418659 791.3317069906693 365.8974999349866Q790.5377592226022 368.15009592810736 790.1315533877771 369.3502495309996L790.1315533877771 369.3502495309996Q789.0791109975486 372.28600988268977 788.5436578516428 375.12945072646505Q788.0082047057371 377.99135547182345 787.3435042487506 381.0563631345942L787.3435042487506 381.0563631345942Q787.3435042487506 381.3148577567556 787.2142569376699 381.85031090266136Q787.0850096265892 382.3857640485671 786.6788037917642 382.3857640485671L786.6788037917642 382.3857640485671Q786.4203091696028 382.3857640485671 786.2725979569391 381.7210635915807Q786.1433506458584 381.0563631345942 786.1433506458584 380.77940461084995L786.1433506458584 380.77940461084995Q785.884856023697 379.7269622206213 785.8110004173652 377.86210816074276Q785.7556087126163 375.9972541008641 785.884856023697 374.9448117106356L785.884856023697 374.9448117106356Q786.2725979569391 371.6213094257033 787.3435042487506 367.8177456996142Q788.4144105405621 364.03264587510796 789.6699558482031 360.7829991965076Q790.9255011558442 357.51488861632424 792.2549020698171 355.3915399342842Q793.58430298379 353.26819125224415 794.5259619645208 353.26819125224415L794.5259619645208 353.26819125224415Q794.9137038977628 353.26819125224415 794.9137038977628 353.6743970870692Z " fill="#ec449b" transform="matrix(1.0548801855174306,0,0,1.0548801855174303,0,-24.255136976052555)"/></g></svg>