<svg xmlns="http://www.w3.org/2000/svg" version="1.1" xmlns:xlink="http://www.w3.org/1999/xlink" xmlns:svgjs="http://svgjs.dev/svgjs" width="100%" height="100%" viewBox="0 0 1000 600"><rect width="1000" height="600" x="0" y="0" fill="#141a46"/><g><circle r="166.66666666666666" cx="405.5116221110027" cy="427.7337693199296" fill="#ec8b5e" transform="matrix(0.5233522770298913,0,0,0.5233522770298914,0,76.14456557703757)"/><path d="M433.3704400230504 373.1896288650188L433.3704400230504 373.1896288650188L434.61633541000015 369.85758306271134Q428.357884163927 367.7714326473536 422.0994329178539 366.72835743967477Q415.84098167178075 365.6852822319959 409.78535060497853 365.6852822319959L409.78535060497853 365.6852822319959Q409.78535060497853 365.6852822319959 409.78535060497853 365.6852822319959Q409.78535060497853 365.6852822319959 409.78535060497853 365.6852822319959L409.78535060497853 365.6852822319959Q392.25589225370896 365.6852822319959 382.2597548467866 373.9139866481291Q372.23464312853986 382.17166537558666 372.23464312853986 396.13728343395354L372.23464312853986 396.13728343395354Q372.23464312853986 396.13728343395354 372.23464312853986 396.13728343395354Q372.23464312853986 396.13728343395354 372.23464312853986 396.13728343395354L372.23464312853986 396.13728343395354Q372.23464312853986 404.68470527465524 376.9284815630947 410.5375161621866Q381.6223199976495 416.3613527383935 389.1266666306724 420.6495508144066Q396.65998757501967 424.93774889041964 405.0045892364505 428.87825523053976L405.0045892364505 428.87825523053976Q405.0045892364505 428.87825523053976 405.0045892364505 428.87825523053976Q405.0045892364505 428.87825523053976 405.0045892364505 428.87825523053976L405.0045892364505 428.87825523053976Q412.5089358694733 432.4420955234425 419.4917448986568 436.29567892958937Q426.4745539278402 440.14926233573624 431.0814694284218 445.3646383741305Q435.659410617679 450.5800144125248 435.659410617679 458.31615553614296L435.659410617679 458.31615553614296Q435.659410617679 458.31615553614296 435.659410617679 458.31615553614296Q435.659410617679 458.31615553614296 435.659410617679 458.31615553614296L435.659410617679 458.31615553614296Q435.659410617679 471.64433874537275 425.95301632400077 478.9458651991247Q416.24662203032256 486.2473916528766 399.7892131980562 486.2473916528766L399.7892131980562 486.2473916528766Q399.7892131980562 486.2473916528766 399.7892131980562 486.2473916528766Q399.7892131980562 486.2473916528766 399.7892131980562 486.2473916528766L399.7892131980562 486.2473916528766Q393.2989674613878 486.2473916528766 386.31615843220436 485.1173935112246Q379.3333494030209 483.95842105824806 372.43746330781073 481.6694504636195L372.43746330781073 481.6694504636195L371.191567920861 485.0014962659269Q378.493094374613 487.2904668605555 385.79462082836494 488.449439313532Q393.0961472821169 489.6084117665085 399.7892131980562 489.6084117665085L399.7892131980562 489.6084117665085Q399.7892131980562 489.6084117665085 399.7892131980562 489.6084117665085Q399.7892131980562 489.6084117665085 399.7892131980562 489.6084117665085L399.7892131980562 489.6084117665085Q417.7243119078676 489.6084117665085 428.357884163927 481.26381010507765Q438.99145641998643 472.9192084436469 438.99145641998643 458.31615553614296L438.99145641998643 458.31615553614296Q438.99145641998643 458.31615553614296 438.99145641998643 458.31615553614296Q438.99145641998643 458.31615553614296 438.99145641998643 458.31615553614296L438.99145641998643 458.31615553614296Q438.99145641998643 449.7397593841168 434.2976179854316 444.1187429871808Q429.60377955087677 438.4977265902447 422.0994329178539 434.20952851423164Q414.59508628483104 429.9213304382186 406.2504846234002 425.9808240980985L406.2504846234002 425.9808240980985Q406.2504846234002 425.9808240980985 406.2504846234002 425.9808240980985Q406.2504846234002 425.9808240980985 406.2504846234002 425.9808240980985L406.2504846234002 425.9808240980985Q398.74613799037735 422.41698380519574 391.73435464986954 418.44750315375126Q384.7515456206861 414.50699681363113 380.1736044314289 409.1757235299392Q375.5666889308473 403.8444502462473 375.5666889308473 396.13728343395354L375.5666889308473 396.13728343395354Q375.5666889308473 396.13728343395354 375.5666889308473 396.13728343395354Q375.5666889308473 396.13728343395354 375.5666889308473 396.13728343395354L375.5666889308473 396.13728343395354Q375.5666889308473 383.4175607625364 384.7515456206861 376.2029572427577Q393.9364023105249 369.0173280343034 409.78535060497853 369.0173280343034L409.78535060497853 369.0173280343034Q409.78535060497853 369.0173280343034 409.78535060497853 369.0173280343034Q409.78535060497853 369.0173280343034 409.78535060497853 369.0173280343034L409.78535060497853 369.0173280343034Q415.435341313239 369.0173280343034 421.4619980687168 370.0604032419822Q427.51762913551903 371.10347844966105 433.3704400230504 373.1896288650188ZM435.0219757685419 372.783988506477L447.9734929305543 361.0783667314143L445.8873425151966 358.58657595751487L432.9358253531842 370.26322342125314Q432.5301849946424 370.6978380911193 432.4142877493448 371.306298628932Q432.32736481537154 371.9437334780691 432.5301849946424 372.3493738366108L432.5301849946424 372.3493738366108L445.45272784533046 394.89138804700383L448.3791332890961 393.2108779901879L435.4565904384081 370.6978380911193Q435.2537702591372 370.26322342125314 435.0219757685419 371.6250160535005Q434.819155589271 372.9868086857479 435.0219757685419 372.783988506477L435.0219757685419 372.783988506477ZM370.7859275623192 482.07509082216126L357.8344104003068 493.9835327764948L359.9205608156645 496.4753235503943L372.87207797767695 484.5958559073851Q373.2777183362187 484.16124123751894 373.4805385154896 483.55278069970626Q373.71233300608486 482.9153458505692 373.2777183362187 482.5097054920274L373.2777183362187 482.5097054920274L360.3551754855307 459.76487110236354L357.42877004176506 461.4453811591795L370.35131289245305 484.16124123751894Q370.7859275623192 484.5958559073851 370.9887477415901 483.1181660298401Q371.191567920861 481.6694504636195 370.7859275623192 482.07509082216126L370.7859275623192 482.07509082216126ZM357.22594986249413 460.6051261307715L357.22594986249413 460.6051261307715L357.22594986249413 495.22942816344454Q357.22594986249413 495.86686301258163 357.5446672870627 496.2725033711234Q357.8344104003068 496.6781437296652 358.4718452494439 496.90993822026047L358.4718452494439 496.90993822026047Q369.1054175055033 499.6045491734308 379.0146319784524 501.16916198494914Q388.9238464514015 502.7337747964674 398.51434349978206 502.7337747964674L398.51434349978206 502.7337747964674Q415.00072664337284 502.7337747964674 427.6335263808167 497.51839875807315Q440.23735180693615 492.30302271967884 447.4519553267149 481.988167888188Q454.6375845351692 471.64433874537275 454.6375845351692 456.635645479327L454.6375845351692 456.635645479327Q454.6375845351692 444.7561778363178 449.0165681382332 436.93311377872647Q443.3665774299727 429.11004972113506 434.73223265529776 423.98159661671406Q426.06891356929845 418.8821178236174 417.0868770587305 414.9126371721729L417.0868770587305 414.9126371721729Q410.62560563338656 411.78341154913636 404.68587181188195 408.97290335066833Q398.74613799037735 406.1623951522003 394.97947751820374 402.59855485929756Q391.2128170460301 399.0636888777192 391.2128170460301 394.4567733771376L391.2128170460301 394.4567733771376Q391.2128170460301 389.0385771594725 395.50101512204316 385.5037111778941Q399.7892131980562 381.9398708849914 408.5394552180288 381.9398708849914L408.5394552180288 381.9398708849914Q417.5214917285967 381.9398708849914 427.6335263808167 385.30089099862323Q437.7455610330367 388.6329368009307 445.8873425151966 395.2970284055456L445.8873425151966 395.2970284055456Q446.7275975436046 395.93446325468267 447.6547755059858 395.49984858481645Q448.581953468367 395.0942082262747 448.581953468367 394.05113301859586L448.581953468367 394.05113301859586L448.581953468367 359.8324713444646Q448.581953468367 359.2240108066519 448.29221035512285 358.78939613678574Q447.9734929305543 358.38375577824394 447.33605808141726 358.18093559897306L447.33605808141726 358.18093559897306Q437.7455610330367 355.4573503344783 428.7635245224688 354.0955577022309Q419.8104623232253 352.7337650699835 411.2630404825236 352.7337650699835L411.2630404825236 352.7337650699835Q394.7766573389328 352.7337650699835 382.4625750260575 358.06503835367545Q370.1484927131822 363.3963116373673 363.28158092929635 373.50834628958734Q356.38569483408617 383.6203809418073 356.38569483408617 397.8177934907695L356.38569483408617 397.8177934907695Q356.38569483408617 409.9000813130495 362.0067112310222 417.8390426159386Q367.65670193928264 425.7490296075032 376.320021025282 430.87748271192424Q384.954365799957 435.9769615050208 393.9364023105249 439.94644215646537L393.9364023105249 439.94644215646537Q400.39767373586886 442.872847600231 406.4533048026711 445.68335579869904Q412.5089358694733 448.49386399716707 416.3625192756202 451.8259097994745Q420.21610268176704 455.1869299131064 420.21610268176704 459.9676912816345L420.21610268176704 459.9676912816345Q420.21610268176704 465.6176819898949 415.52226424721226 469.35536815074414Q410.8284258126574 473.12202862291775 401.03510858500596 473.12202862291775L401.03510858500596 473.12202862291775Q391.2128170460301 473.12202862291775 380.05770718613127 469.7899828206103Q368.9025973262324 466.42896270697844 359.9205608156645 459.3592307438218L359.9205608156645 459.3592307438218Q359.10928009858094 458.7217958946847 358.15312782487536 459.1274362532265Q357.22594986249413 459.56205092309267 357.22594986249413 460.6051261307715ZM360.5579956648016 495.22942816344454L360.5579956648016 460.6051261307715L357.8344104003068 461.8510215177213Q367.45388176001177 469.1525479714732 379.0146319784524 472.8033111983492Q390.60435650821745 476.4540744252252 401.03510858500596 476.4540744252252L401.03510858500596 476.4540744252252Q412.71175604874423 476.4540744252252 418.12995226640936 471.5574158113995Q423.5481484840745 466.6607571975738 423.5481484840745 459.9676912816345L423.5481484840745 459.9676912816345Q423.5481484840745 454.3466748846984 419.6945650779276 450.49309147855155Q415.84098167178075 446.61053376108026 409.46663318041004 443.4813081380437Q403.12125900036364 440.3520825150071 395.1822976974746 437.02003671269966L395.1822976974746 437.02003671269966Q386.8376960360438 433.28235055185047 378.6959145538838 428.47261487199796Q370.58310738304834 423.6628791921455 365.1359368540588 416.3613527383935Q359.7177406363936 409.05982628464153 359.7177406363936 397.8177934907695L359.7177406363936 397.8177934907695Q359.7177406363936 384.46063597021526 366.17901206173764 375.15988203507885Q372.669257798406 365.88810241126686 384.2300080168466 360.9914437974411Q395.8197325466117 356.09478518361533 411.2630404825236 356.09478518361533L411.2630404825236 356.09478518361533Q419.6076421439544 356.09478518361533 428.357884163927 357.42760350453835Q437.1081261838996 358.78939613678574 446.4958030530093 361.5129814012805L446.4958030530093 361.5129814012805L445.2499076660595 359.8324713444646L445.2499076660595 394.05113301859586L447.9734929305543 392.8052376316461Q439.4260710898526 385.70653135716503 428.7635245224688 382.17166537558666Q418.12995226640936 378.607825082684 408.5394552180288 378.607825082684L408.5394552180288 378.607825082684Q397.9058829619694 378.607825082684 392.893327102846 383.30166351723875Q387.8807712437227 387.9955019517936 387.8807712437227 394.4567733771376L387.8807712437227 394.4567733771376Q387.8807712437227 399.9039439061272 391.6474317158963 403.8444502462473Q395.3851178767455 407.8139308976918 401.75946636811625 411.059053766026Q408.133814859487 414.27520232303584 415.84098167178075 417.8390426159386L415.84098167178075 417.8390426159386Q424.1855833332116 421.5767287767878 432.32736481537154 426.3864644566403Q440.4691462975315 431.1962001364928 445.8873425151966 438.3818293449471Q451.30553873286175 445.5674585534014 451.30553873286175 456.635645479327L451.30553873286175 456.635645479327Q451.30553873286175 470.83305802828914 444.52554988294924 480.30765783137207Q437.7455610330367 489.8112319457794 425.8660933900275 494.59199331430744Q413.95765143569395 499.40172899415995 398.51434349978206 499.40172899415995L398.51434349978206 499.40172899415995Q389.3584611212677 499.40172899415995 379.53616958229185 497.8371161826417Q369.7428523546404 496.2725033711234 359.3121002778518 493.5489181066286L359.3121002778518 493.5489181066286L360.5579956648016 495.22942816344454Z " fill="#141a46" transform="matrix(0.5233522770298913,0,0,0.5233522770298914,0,76.14456557703757)"/><path d="M678.1418390118703 430.29359307733375L727.0727927662606 430.29359307733375L727.0727927662606 426.8804898689698L678.1418390118703 426.8804898689698L678.1418390118703 430.29359307733375ZM678.9951148139613 366.0919447958669L658.0162994039312 352.96915142577785L656.3391711032695 355.9114817778157L677.2885632097793 369.0636984514251Q677.2885632097793 369.0636984514251 677.2002932992183 368.9460052373436Q677.0826000851367 368.85773532678246 677.0826000851367 368.85773532678246L677.0826000851367 368.85773532678246L692.9711839861413 382.18649182151415L695.0896618396087 379.65608771876157L679.201077938604 366.29790792050954Q679.201077938604 366.29790792050954 679.201077938604 366.2096380099484Q679.201077938604 366.0919447958669 678.9951148139613 366.0919447958669L678.9951148139613 366.0919447958669ZM734.0755390041107 370.1229373781588L747.1983323741998 355.49955552853044L744.6679282714472 353.3810776750632L731.5451349013582 368.0044595246915Q731.3097484731951 368.21042264933413 731.2214785626339 368.9460052373436Q731.1037853485525 369.6815878253531 731.3097484731951 370.1229373781588L731.3097484731951 370.1229373781588L744.4619651468046 388.54192538191603L747.4337188023628 386.4234475284487L734.2815021287535 368.0044595246915Q733.8695758794681 367.5631099718858 733.7518826653866 369.0636984514251Q733.6636127548255 370.53486362744405 734.0755390041107 370.1229373781588L734.0755390041107 370.1229373781588ZM728.3674181211572 429.6462803998854L741.4902114912462 412.28653132286183L738.9598073884937 410.1680534693946L725.8075907148842 427.5278025464182Q725.395664465599 427.93972879570345 725.395664465599 428.58704147315177Q725.395664465599 429.23435415060015 725.8075907148842 429.6462803998854L725.8075907148842 429.6462803998854L738.9598073884937 446.80006635226636L741.4902114912462 444.68158849879904L728.3674181211572 427.5278025464182Q728.1320316929942 427.11587629713284 728.1320316929942 428.58704147315177Q728.1320316929942 430.0582066491707 728.3674181211572 429.6462803998854L728.3674181211572 429.6462803998854ZM679.201077938604 429.8522435245281L694.2363860375176 417.14137640372434L692.1179081840504 414.61097230097175L677.0826000851367 427.3218394217755Q676.4647107112088 427.7337656710608 676.4647107112088 428.58704147315177Q676.4647107112088 429.44031727524276 677.0826000851367 429.8522435245281L677.0826000851367 429.8522435245281L692.1179081840504 442.5631106453318L694.2363860375176 440.0327065425792L679.201077938604 427.3218394217755Q678.5831885646761 426.8804898689698 678.5831885646761 428.58704147315177Q678.5831885646761 430.29359307733375 679.201077938604 429.8522435245281L679.201077938604 429.8522435245281ZM732.6043738280918 370.7408267520868L732.6043738280918 370.7408267520868L733.0163000773771 367.3571468472432Q725.395664465599 366.7392574733152 715.3328946616293 366.41560113459104Q705.2701248576598 366.0919447958669 695.4133181783328 365.8859816712242Q685.5565114990059 365.68001854658155 678.1418390118703 365.8859816712242L678.1418390118703 365.8859816712242Q677.2885632097793 365.8859816712242 676.876636960494 366.41560113459104Q676.4647107112088 366.94522059795787 676.4647107112088 367.5631099718858L676.4647107112088 367.5631099718858L676.4647107112088 485.37401726748317L679.8483906160524 485.37401726748317L679.8483906160524 367.5631099718858Q679.8483906160524 366.94522059795787 678.6714584752372 368.09272943525264Q677.5239496379423 369.2696615760678 678.1418390118703 369.2696615760678L678.1418390118703 369.2696615760678Q685.5565114990059 369.0636984514251 695.4133181783328 369.2696615760678Q705.2701248576598 369.47562470071045 715.2152014475479 369.7992810394346Q725.1897013409563 370.1229373781588 732.6043738280918 370.7408267520868ZM677.2885632097793 486.8451824435021L698.0614154951669 499.9679758135912L699.7679670993489 497.0256454615532L678.9951148139613 483.87342878794385Q678.7891516893186 483.6674656633012 678.2595322259518 483.6674656633012Q677.7299127625851 483.6674656633012 677.2885632097793 483.87342878794385L677.2885632097793 483.87342878794385L656.3391711032695 497.0256454615532L658.0162994039312 499.9679758135912L678.9951148139613 486.8451824435021Q679.4070410632467 486.4332561942168 678.1418390118703 486.4332561942168Q676.876636960494 486.4332561942168 677.2885632097793 486.8451824435021L677.2885632097793 486.8451824435021ZM657.1630236018401 500.2033622417542L657.1630236018401 500.2033622417542L698.914691297258 500.2033622417542Q699.9739302239915 500.2033622417542 700.3858564732768 499.3500864396632Q700.8272060260825 498.4968106375722 700.3858564732768 497.6435348354812L700.3858564732768 497.6435348354812Q698.4733417444522 494.05389180599497 697.3258329071574 488.3163476195211Q696.1489007663423 482.6082267365676 695.6192813029754 471.692181130507Q695.0896618396087 460.7761355244464 694.883698714966 441.29790859395547L694.883698714966 441.29790859395547L693.177147110784 443.00446019813745Q709.9190068138796 443.00446019813745 718.7165745664729 443.4163864474228Q727.5141423190663 443.8283126967081 731.9570611506434 444.68158849879904Q736.3999799822208 445.5348643008901 739.3717336377789 447.2414159050721L739.3717336377789 447.2414159050721Q740.4309725645127 447.65334215435735 741.166555152522 447.1237226909905Q741.9021377405315 446.5941032276237 741.9021377405315 445.7408274255327L741.9021377405315 445.7408274255327L741.9021377405315 411.2272923961282Q741.9021377405315 410.1680534693946 741.166555152522 409.72670391658886Q740.4309725645127 409.3147776673036 739.3717336377789 409.72670391658886L739.3717336377789 409.72670391658886Q736.3999799822208 411.43325552077084 731.9570611506434 412.374801233423Q727.5141423190663 413.3457702495955 718.5988813523915 413.64000328479926Q709.713043689237 413.9636596235234 693.177147110784 414.1696227481661L693.177147110784 414.1696227481661L694.883698714966 415.8761743523481Q694.883698714966 404.224546158278 695.0896618396087 395.75063474440884Q695.2956249642513 387.2767233305397 695.736974517057 381.1272528947805L695.736974517057 381.1272528947805L694.030422912875 382.62784137431987Q712.0374846673469 382.18649182151415 721.8942913466739 383.15746083768664Q731.7510980260008 384.0990065503388 736.7236363209448 385.5701717263577Q741.6961746158889 387.0707602058971 745.0798545207325 388.9832749347217L745.0798545207325 388.9832749347217Q746.1390934474662 389.395201184007 746.9040993389959 388.8655817206402Q747.6396819270054 388.33596225727337 747.6396819270054 387.4826864551824L747.6396819270054 387.4826864551824L747.6396819270054 354.4403166017968Q747.6396819270054 353.79300392434845 747.1100624636387 353.2633844609816Q746.5804430002719 352.73376499761486 745.9331303228236 352.73376499761486L745.9331303228236 352.73376499761486L657.1630236018401 352.73376499761486Q656.3391711032695 352.73376499761486 655.8095516399027 353.4987708891447Q655.2799321765359 354.2343534771541 655.6918584258211 355.29359240388777L655.6918584258211 355.29359240388777Q657.3984100300032 358.2653460594461 658.4576489567368 362.50230176638064Q659.5168878834705 366.7392574733152 660.0465073468373 374.15392996045074Q660.5761268102041 381.5686024475862 660.870359845408 393.6321568909416Q661.194016184132 405.69571133429696 661.194016184132 424.55604889085987L661.194016184132 424.55604889085987Q661.194016184132 444.47562537415644 660.870359845408 457.30418570904163Q660.5761268102041 470.1033227404065 660.0465073468373 477.95934478034764Q659.5168878834705 485.7859435167685 658.4576489567368 490.14059243778456Q657.3984100300032 494.4658180552803 655.6918584258211 497.6435348354812L655.6918584258211 497.6435348354812Q655.2799321765359 498.4968106375722 655.8095516399027 499.3500864396632Q656.3391711032695 500.2033622417542 657.1630236018401 500.2033622417542ZM698.914691297258 496.7902590333902L657.1630236018401 496.7902590333902L658.6636120813795 499.3500864396632Q660.3407403820411 496.1723696594623 661.3999793087747 491.6117576138035Q662.4592182355084 487.0511455681448 663.2242241270382 479.10685361764246Q663.9598067150476 471.16256166714015 664.2834630537719 458.0397682970511Q664.5776960889756 444.8875516234417 664.5776960889756 424.55604889085987L664.5776960889756 424.55604889085987Q664.5776960889756 405.28378508501163 664.2834630537719 392.8965743029321Q663.9598067150476 380.50936352085256 663.2242241270382 372.9769978196355Q662.4592182355084 365.44463211841855 661.3999793087747 361.1194065009228Q660.3407403820411 356.76475757990676 658.6636120813795 353.5870407997058L658.6636120813795 353.5870407997058L657.1630236018401 356.14686820597876L745.9331303228236 356.14686820597876L744.2560020221619 354.4403166017968L744.2560020221619 387.4826864551824L746.7864061249145 386.01152127916345Q743.1967630954283 384.0990065503388 737.9888383723211 382.5101481602383Q732.8103369527345 380.9212897701379 722.6298739346834 379.86205084340423Q712.4788342201526 378.8028119166706 694.030422912875 379.2147381659559L694.030422912875 379.2147381659559Q693.4125335389471 379.2147381659559 692.8829140755802 379.65608771876157Q692.3532946122134 380.06801396804684 692.3532946122134 380.71532664549517L692.3532946122134 380.71532664549517Q691.9119450594077 387.2767233305397 691.705981934765 395.75063474440884Q691.5000188101225 404.224546158278 691.5000188101225 415.8761743523481L691.5000188101225 415.8761743523481Q691.5000188101225 416.5234870297964 692.0296382734892 417.0531064931632Q692.559257736856 417.58272595653006 693.177147110784 417.58272595653006L693.177147110784 417.58272595653006Q706.3293637843934 417.58272595653006 714.4796188595384 417.2590696178059Q722.6298739346834 416.93541327908173 727.6024122296274 416.2881006016334Q732.6043738280918 415.6702112277054 735.5467041801297 414.8169354256144Q738.518457835688 413.9636596235234 741.078285241961 412.69845757214716L741.078285241961 412.69845757214716L738.518457835688 411.2272923961282L738.518457835688 445.7408274255327L741.078285241961 444.2696622495138Q738.518457835688 443.00446019813745 735.5467041801297 442.1511843960465Q732.6043738280918 441.29790859395547 727.6024122296274 440.7682891305887Q722.6298739346834 440.23866966722187 714.3619256454568 439.91501332849765Q706.1234006597507 439.5913569897735 693.177147110784 439.5913569897735L693.177147110784 439.5913569897735Q692.559257736856 439.5913569897735 692.0296382734892 440.1209764531403Q691.5000188101225 440.65059591650714 691.5000188101225 441.29790859395547L691.5000188101225 441.29790859395547Q691.705981934765 456.33321669286914 692.1179081840504 466.3077165862776Q692.559257736856 476.2527931761657 693.177147110784 482.49053352248603Q693.8244597882323 488.7576971723268 694.883698714966 492.5533033264556Q695.9429376416996 496.3783327841049 697.4141028177186 499.3500864396632L697.4141028177186 499.3500864396632L698.914691297258 496.7902590333902ZM774.9739308974375 460.15824615051844L766.9119457328537 483.02015298585286L770.2956256376973 484.31477834074957L778.3576108022811 461.4234482018947Q778.3576108022811 461.4234482018947 778.2399175881995 461.4234482018947Q778.1516476776384 461.4234482018947 778.1516476776384 461.4234482018947L778.1516476776384 461.4234482018947L805.2505102199075 388.9832749347217Q805.6918597727132 388.54192538191603 804.514927631898 389.2775079699255Q803.3379954910828 390.04251386145535 803.7793450438885 390.04251386145535L803.7793450438885 390.04251386145535L814.5776974358677 390.04251386145535Q814.9896236851529 390.04251386145535 813.9303847584192 389.2775079699255Q812.8711458316856 388.54192538191603 813.1065322598487 388.9832749347217L813.1065322598487 388.9832749347217L840.2053948021177 461.4234482018947Q840.2053948021177 461.4234482018947 840.1171248915565 461.4234482018947Q839.999431677475 461.4234482018947 839.999431677475 461.4234482018947L839.999431677475 461.4234482018947L847.8260304138959 484.31477834074957L851.2391336222598 483.02015298585286L843.3831115823186 460.15824615051844Q843.3831115823186 460.15824615051844 843.3831115823186 460.15824615051844Q843.3831115823186 460.15824615051844 843.1771484576759 460.15824615051844L843.1771484576759 460.15824615051844L816.0488626118865 387.68864957982504Q815.6369363626012 386.6294106530914 814.5776974358677 386.6294106530914L814.5776974358677 386.6294106530914L803.7793450438885 386.6294106530914Q802.7201061171548 386.6294106530914 802.2787565643492 387.68864957982504L802.2787565643492 387.68864957982504L775.1798940220801 460.15824615051844Q774.9739308974375 460.15824615051844 774.9739308974375 460.15824615051844Q774.9739308974375 460.15824615051844 774.9739308974375 460.15824615051844L774.9739308974375 460.15824615051844ZM776.6510591980991 462.48268712862836L841.705983281657 462.48268712862836L841.705983281657 459.0990072237848L776.6510591980991 459.0990072237848L776.6510591980991 462.48268712862836ZM805.0445470952649 387.2767233305397L795.3054336300194 374.565856209736L792.7456062237464 376.68433406320327L802.5141429925122 389.395201184007Q802.5141429925122 389.6011643086497 802.2787565643492 388.9832749347217Q802.0727934397065 388.33596225727337 802.0727934397065 388.54192538191603L802.0727934397065 388.54192538191603L806.7510986994467 413.3457702495955Q807.1630249487321 414.8169354256144 808.5459202141899 414.8169354256144Q809.9288154796477 414.8169354256144 810.1347786042903 413.55173337423815L810.1347786042903 413.55173337423815L816.2842490400495 388.7478885065587Q816.2842490400495 388.54192538191603 815.9605927013255 389.07154484528286Q815.6369363626012 389.6011643086497 815.8428994872439 389.395201184007L815.8428994872439 389.395201184007L827.0826014320287 376.68433406320327L824.5227740257557 374.565856209736L813.3124953844913 387.2767233305397Q813.1065322598487 387.4826864551824 813.1065322598487 387.6003796692639Q813.1065322598487 387.68864957982504 812.8711458316856 387.92403600798804L812.8711458316856 387.92403600798804L806.7510986994467 412.69845757214716Q806.5157122712837 413.9636596235234 808.4282270001084 414.0813528376049Q810.340741728933 414.1696227481661 810.1347786042903 412.9044206967898L810.1347786042903 412.9044206967898L805.4564733445501 388.1299991326307Q805.4564733445501 387.68864957982504 805.3682034339889 387.6003796692639Q805.2505102199075 387.4826864551824 805.0445470952649 387.2767233305397L805.0445470952649 387.2767233305397ZM777.7102981248328 462.2767240039857L796.1587094321104 449.565856883182L794.0402315786431 446.5941032276237L775.5918202713655 459.3049703484274Q775.1798940220801 459.7168965977127 775.0622008079987 460.4819024892426Q774.9739308974375 461.21748507725204 775.3858571467229 461.83537445118003L775.3858571467229 461.83537445118003L785.566320164774 474.34027844734106L788.0967242675265 472.22180059387375L777.9162612494754 459.7168965977127Q777.50433500019 459.0990072237848 777.2983718755474 460.7761355244464Q777.0924087509048 462.48268712862836 777.7102981248328 462.2767240039857L777.7102981248328 462.2767240039857ZM842.5298357802276 459.3049703484274L822.6396826004515 446.5941032276237L820.9331309962695 449.565856883182L840.852707479566 462.2767240039857Q841.4705968534939 462.48268712862836 841.2646337288513 460.7761355244464Q841.0586706042086 459.0990072237848 840.4113579267603 459.7168965977127L840.4113579267603 459.7168965977127L828.7597297326903 472.22180059387375L831.3195571389632 474.34027844734106L842.9711853330333 461.83537445118003Q843.3831115823186 461.4234482018947 843.3831115823186 460.5701723998037Q843.3831115823186 459.7168965977127 842.5298357802276 459.3049703484274L842.5298357802276 459.3049703484274ZM767.559258410302 484.9326677146775L784.9190074873256 499.76201268894846L787.0374853407928 497.23160858619593L769.6777362637694 482.40226361192487Q769.4423498356063 481.96091405911926 768.8244604616783 481.8726441485581Q768.17714778423 481.75495093447654 767.7652215349447 482.19630048728226L767.7652215349447 482.19630048728226L742.9613766672652 497.0256454615532L744.6679282714472 499.9679758135912L769.4423498356063 485.1386308393201Q769.883699388412 484.72670459003484 768.5008041229542 484.60901137595334Q767.1179088574963 484.5207414653922 767.559258410302 484.9326677146775L767.559258410302 484.9326677146775ZM848.6793062159868 485.1386308393201L875.1602793843279 499.9679758135912L876.8668309885098 497.0256454615532L850.3858578201688 482.19630048728226Q849.9445082673631 481.75495093447654 849.4148888039963 481.8726441485581Q848.8852693406295 481.96091405911926 848.4733430913442 482.40226361192487L848.4733430913442 482.40226361192487L829.8189686594238 497.23160858619593L831.9374465128911 499.76201268894846L850.5918209448115 484.9326677146775Q851.0037471940967 484.5207414653922 849.6502752321593 484.60901137595334Q848.2673799667015 484.72670459003484 848.6793062159868 485.1386308393201L848.6793062159868 485.1386308393201ZM877.2787572377952 497.43757171083854L877.2787572377952 497.43757171083854Q875.1602793843279 494.6717811799229 872.8358384062179 490.876175025794Q870.511397428108 487.0511455681448 867.4219505584682 480.4897488831003Q864.3619269923488 473.92835219805573 859.80131494669 462.8946133779137Q855.2407029010313 451.8902978612919 848.4733430913442 434.5305487842683L848.4733430913442 434.5305487842683Q842.1179095309423 417.9946522058154 838.2046101627319 407.6082260631216Q834.2913107945216 397.2217999204278 832.1728329410543 391.101752788189Q830.0543550875869 384.9522823524298 828.9951161608533 381.45090923350466Q827.9358772341196 377.9495361145796 827.494527681314 375.419132011827L827.494527681314 375.419132011827Q827.2885645566713 374.7718193343787 826.876638307386 374.35989308509335Q826.4352887545803 373.91854353228763 825.8173993806523 373.91854353228763L825.8173993806523 373.91854353228763L794.0402315786431 373.91854353228763Q793.3929189011948 373.91854353228763 792.8632994378279 374.35989308509335Q792.3336799744611 374.7718193343787 792.3336799744611 375.62509513646967L792.3336799744611 375.62509513646967Q792.1277168498184 378.15549923922225 791.1567478336459 381.6568723581473Q790.2152021209938 385.1582454770724 787.8907611428839 391.3077159128316Q785.566320164774 397.4571863485908 781.535327582482 407.8141891877642Q777.50433500019 418.200615330458 771.3548645644308 434.5305487842683L771.3548645644308 434.5305487842683Q764.5875047547437 451.8902978612919 760.026892709085 462.8946133779137Q755.4662806634262 473.92835219805573 752.4062570973068 480.4897488831003Q749.316810227667 487.0511455681448 746.9923692495571 490.876175025794Q744.6679282714472 494.6717811799229 742.5494504179799 497.43757171083854L742.5494504179799 497.43757171083854Q741.9021377405315 498.29084751292953 742.3434872933373 499.2323932255817Q742.7554135426225 500.2033622417542 743.8146524693562 500.2033622417542L743.8146524693562 500.2033622417542L785.9782464140593 500.2033622417542Q787.0374853407928 500.2033622417542 787.4494115900782 499.4383563502243Q787.8907611428839 498.70277376221486 787.6847980182412 497.84949796012387L787.6847980182412 497.84949796012387Q786.1842095387019 494.05389180599497 785.9782464140593 489.08135351105096Q785.7722832894166 484.0793919125865 788.5086505168118 473.7223890734131L788.5086505168118 473.7223890734131L786.8315222161502 474.9875911247894L830.0543550875869 474.9875911247894L828.347803483405 473.7223890734131Q831.3195571389632 484.0793919125865 830.995900800239 489.08135351105096Q830.6722444615149 494.05389180599497 829.2010792854959 497.84949796012387L829.2010792854959 497.84949796012387Q828.9951161608533 498.70277376221486 829.5247356242202 499.4383563502243Q830.0543550875869 500.2033622417542 830.8782075861575 500.2033622417542L830.8782075861575 500.2033622417542L876.0135551864189 500.2033622417542Q877.0727941131526 500.2033622417542 877.4847203624378 499.2323932255817Q877.9260699152435 498.29084751292953 877.2787572377952 497.43757171083854ZM809.9288154796477 413.75769649888076L806.9570618240895 413.75769649888076L820.285818318821 448.712581081091L821.7864067983604 446.388140102981L795.0994705053768 446.388140102981L796.5706356813956 448.712581081091L809.9288154796477 413.75769649888076ZM874.7483531350425 499.55604956430585L874.7483531350425 499.55604956430585L876.0135551864189 496.7902590333902L830.8782075861575 496.7902590333902L832.5847591903395 499.1441233150205Q834.0559243663585 494.90716760808596 834.3795807050826 489.37558654625474Q834.7032370438068 483.87342878794385 831.7314833882485 472.86911327132214L831.7314833882485 472.86911327132214Q831.5255202636059 472.22180059387375 831.1135940143206 471.8981442551496Q830.6722444615149 471.6039112199458 830.0543550875869 471.6039112199458L830.0543550875869 471.6039112199458L786.8315222161502 471.6039112199458Q786.1842095387019 471.6039112199458 785.7722832894166 471.8981442551496Q785.3309337366109 472.22180059387375 785.1249706119683 472.86911327132214L785.1249706119683 472.86911327132214Q782.388603384573 483.87342878794385 782.5945665092157 489.37558654625474Q782.8005296338583 494.90716760808596 784.2716948098772 499.1441233150205L784.2716948098772 499.1441233150205L785.9782464140593 496.7902590333902L743.8146524693562 496.7902590333902L745.0798545207325 499.55604956430585Q747.1983323741998 496.7902590333902 749.55219665583 492.9946528792613Q751.87663763394 489.1696234216121 755.0543544141409 482.49053352248603Q758.2320711943419 475.8408669268804 762.8809531505617 464.60116498209567Q767.559258410302 453.36146303731084 774.3266182199892 435.79575083564464L774.3266182199892 435.79575083564464Q780.8880149050336 419.053891132549 785.0367007014071 408.4615018652126Q789.1559631942602 397.86911259787615 791.392134261809 391.63137225155583Q793.5988820258374 385.36420860171506 794.5698510420099 381.86283548279Q795.511396754662 378.39088566738525 795.7173598793047 375.62509513646967L795.7173598793047 375.62509513646967L794.0402315786431 377.3316467406516L825.8173993806523 377.3316467406516L824.1108477764705 375.83105826111233Q824.5227740257557 378.5968487920279 825.5820129524893 382.098221910953Q826.641251879223 385.5701717263577 828.8774229467717 391.83733537619844Q831.1135940143206 398.07507572251876 835.1151632930921 408.6674649898552Q839.146155875384 419.25985425719165 845.5015894357858 435.79575083564464L845.5015894357858 435.79575083564464Q852.2983725489934 453.36146303731084 856.8295612911318 464.60116498209567Q861.3901733367906 475.8408669268804 864.685583331073 482.49053352248603Q867.951570021835 489.1696234216121 870.3054343034654 492.9946528792613Q872.6298752815752 496.7902590333902 874.7483531350425 499.55604956430585ZM823.2575719743794 447.4473790297147L809.9288154796477 412.4924944475045Q809.6934290514847 411.43325552077084 808.5459202141899 411.43325552077084Q807.3689880733747 411.43325552077084 806.9570618240895 412.4924944475045L806.9570618240895 412.4924944475045L793.5988820258374 447.4473790297147Q793.3929189011948 448.3006548318057 793.80484515048 449.03623741981517Q794.2461947032857 449.7718200078246 795.0994705053768 449.7718200078246L795.0994705053768 449.7718200078246L821.7864067983604 449.7718200078246Q822.8456457250941 449.7718200078246 823.2575719743794 449.03623741981517Q823.698921527185 448.3006548318057 823.2575719743794 447.4473790297147L823.2575719743794 447.4473790297147ZM964.5776987827595 389.18923805936436L946.9825632775729 374.35989308509335L944.8640854241056 376.890297187846L962.4592209292922 391.71964216211694Q962.8711471785775 391.9256052867596 963.4007666419444 392.0432985008411Q963.9303861053112 392.16099171492266 964.3423123545965 391.9256052867596L964.3423123545965 391.9256052867596L988.9401940976334 377.0962603124886L987.2336424934514 374.15392996045074L962.6651840539349 388.9832749347217Q962.2238345011293 389.18923805936436 963.606729766587 389.2775079699255Q964.9896250320448 389.395201184007 964.5776987827595 389.18923805936436L964.5776987827595 389.18923805936436ZM887.0178707030406 388.9832749347217L860.9782470875052 374.15392996045074L859.2716954833232 377.0962603124886L885.3407424023791 391.9256052867596Q885.7526686516643 392.16099171492266 886.2822881150312 392.0432985008411Q886.811907578398 391.9256052867596 887.2532571312037 391.71964216211694L887.2532571312037 391.71964216211694L906.3195578124092 376.890297187846L904.2010799589419 374.35989308509335L885.1347792777364 389.18923805936436Q884.8993928495732 389.395201184007 886.19401820447 389.2775079699255Q887.4592202558463 389.18923805936436 887.0178707030406 388.9832749347217L887.0178707030406 388.9832749347217ZM887.8711465051316 390.04251386145535L887.8711465051316 390.04251386145535L884.487466600288 390.86636636002595Q886.3999813291126 397.6631494732335 890.4309739114045 409.19708445322203Q894.432543190176 420.76044273673097 901.6412525526689 439.5913569897735L901.6412525526689 439.5913569897735Q901.6412525526689 439.5913569897735 901.6412525526689 439.5913569897735Q901.6412525526689 439.5913569897735 901.6412525526689 439.5913569897735L901.6412525526689 439.5913569897735Q905.0249324575126 448.712581081091 908.9676551292433 459.7168965977127Q912.8809544974537 470.7506354178548 916.0586712776546 480.07782263381495L916.0586712776546 480.07782263381495Q916.47059752694 480.4897488831003 916.9119470797456 480.81340522182444Q917.3238733290309 481.1370615605486 917.7357995783162 481.1370615605486L917.7357995783162 481.1370615605486L931.7412920540166 481.1370615605486Q932.8005309807503 481.1370615605486 933.4184203546782 480.07782263381495L933.4184203546782 480.07782263381495Q936.5961371348791 470.7506354178548 940.627129717171 459.7168965977127Q944.658122299463 448.712581081091 948.0418022043065 439.5913569897735L948.0418022043065 439.5913569897735Q948.0418022043065 439.5913569897735 948.0418022043065 439.5913569897735Q948.0418022043065 439.5913569897735 948.0418022043065 439.5913569897735L948.0418022043065 439.5913569897735Q955.456474691442 420.3190931839253 959.3697740596525 408.87342811449787Q963.2830734278629 397.4571863485908 965.1955881566874 390.86636636002595L965.1955881566874 390.86636636002595L961.8119082518439 390.04251386145535Q959.8993935230193 396.60391054649983 955.9860941548089 407.93188240184577Q952.0727947865985 419.25985425719165 945.0700485487483 438.3261549383972L945.0700485487483 438.3261549383972Q945.0700485487483 438.3261549383972 945.0700485487483 438.3261549383972Q945.0700485487483 438.3261549383972 945.0700485487483 438.3261549383972L945.0700485487483 438.3261549383972Q942.7456075706383 444.2696622495138 939.9798170397227 451.36067839792514Q937.2434498123275 458.45169454633646 934.6836224060545 465.54271069474777Q932.153218303302 472.66315014667947 930.0347404498347 478.7831972789183L930.0347404498347 478.7831972789183Q929.8287773251919 479.4305099563666 930.9762861624868 478.5772341542757Q932.153218303302 477.72395835218464 931.7412920540166 477.72395835218464L931.7412920540166 477.72395835218464L917.7357995783162 477.72395835218464Q917.3238733290309 477.72395835218464 918.5008054698461 478.5772341542757Q919.6483143071408 479.4305099563666 919.4423511824982 478.7831972789183L919.4423511824982 478.7831972789183Q916.2646344022972 469.48543336647856 912.2336418200053 458.45169454633646Q908.2026492377134 447.4473790297147 904.6130062082273 438.3261549383972L904.6130062082273 438.3261549383972Q904.6130062082273 438.3261549383972 904.6130062082273 438.3261549383972Q904.6130062082273 438.3261549383972 904.6130062082273 438.3261549383972L904.6130062082273 438.3261549383972Q897.610259970377 419.4658173818343 893.6969606021667 408.13784552648843Q889.7836612339562 396.8098736711425 887.8711465051316 390.04251386145535ZM916.2646344022972 478.5772341542757L906.7314840616945 497.6435348354812L909.7032377172528 499.3500864396632L919.2363880578556 480.2837857584576Q919.2363880578556 480.07782263381495 919.2363880578556 480.07782263381495Q919.2363880578556 480.07782263381495 919.2363880578556 480.07782263381495L919.2363880578556 480.07782263381495L927.0629867942763 459.7168965977127Q927.5043363470821 458.65765767097906 925.5918216182574 458.56938776041795Q923.6793068894327 458.45169454633646 923.8852700140754 459.51093347307005L923.8852700140754 459.51093347307005L930.0347404498347 479.84243620565195Q930.0347404498347 480.07782263381495 930.1524336639162 480.07782263381495Q930.2407035744774 480.07782263381495 930.2407035744774 480.07782263381495L930.2407035744774 480.07782263381495L938.5086518637038 499.1441233150205L941.480405519262 497.84949796012387L933.2124572300355 478.7831972789183Q933.2124572300355 478.7831972789183 933.3301504441171 478.90089049299985Q933.4184203546782 479.0185837070813 933.4184203546782 479.0185837070813L933.4184203546782 479.0185837070813L927.268949918919 458.65765767097906Q926.8570236696338 457.3924556196028 925.6800915288185 457.3924556196028Q924.5325826915238 457.3924556196028 924.091233138718 458.45169454633646L924.091233138718 458.45169454633646L916.2646344022972 478.7831972789183Q916.0586712776546 478.7831972789183 916.1469411882157 478.6949273683571Q916.2646344022972 478.5772341542757 916.2646344022972 478.5772341542757L916.2646344022972 478.5772341542757ZM919.8542774317835 438.3261549383972L919.8542774317835 438.3261549383972Q913.7342302995447 421.37833211065896 910.4388203052623 410.69767293276135Q907.1434103109798 399.98759045134346 905.9959014736851 393.6321568909416Q904.8189693328699 387.2767233305397 905.2603188856756 383.3634239623293Q905.6722451349609 379.4501245941189 906.9374471863372 376.272407813918L906.9374471863372 376.272407813918Q907.1434103109798 375.419132011827 906.7314840616945 374.6835494238175Q906.3195578124092 373.91854353228763 905.2603188856756 373.91854353228763L905.2603188856756 373.91854353228763L860.1249712854142 373.91854353228763Q859.0657323586806 373.91854353228763 858.6538061093953 374.8895125484602Q858.2124565565896 375.83105826111233 858.859769234038 376.68433406320327L858.859769234038 376.68433406320327Q860.9782470875052 379.4501245941189 863.1849948515336 383.2457307482478Q865.4211659190825 387.0707602058971 868.2752263605591 393.6321568909416Q871.129286802036 400.1935535759861 875.6016289371336 411.2272923961282Q880.0445477687108 422.2316079127499 886.6059444537552 439.5913569897735L886.6059444537552 439.5913569897735Q892.7554148895146 455.9212904435838 896.5510210436433 466.39598649683876Q900.3760505012926 476.90010585361404 902.2885652301172 483.02015298585286Q904.2010799589419 489.1696234216121 905.142625671594 492.67099654053715Q906.0841713842461 496.1723696594623 906.5255209370519 498.70277376221486L906.5255209370519 498.70277376221486Q906.7314840616945 499.3500864396632 907.1434103109798 499.76201268894846Q907.5847598637855 500.2033622417542 908.2026492377134 500.2033622417542L908.2026492377134 500.2033622417542L939.9798170397227 500.2033622417542Q940.627129717171 500.2033622417542 941.1567491805379 499.76201268894846Q941.6863686439048 499.3500864396632 941.6863686439048 498.4968106375722L941.6863686439048 498.4968106375722Q941.8923317685474 495.9664065348196 942.7456075706383 492.46503341589454Q943.5988833727293 488.9636602969694 945.5996680121151 482.8141898612102Q947.6298759550212 476.664719425451 951.5431753232317 466.3077165862776Q955.456474691442 455.9212904435838 961.6059451272013 439.5913569897735L961.6059451272013 439.5913569897735Q968.3733049368884 422.2316079127499 972.7279538579045 411.2272923961282Q977.0531794754002 400.1935535759861 980.0249331309584 393.6321568909416Q982.9966867865168 387.0707602058971 985.1151646399841 383.2457307482478Q987.2336424934514 379.4501245941189 989.3521203469186 376.68433406320327L989.3521203469186 376.68433406320327Q989.999433024367 375.83105826111233 989.5580834715612 374.8895125484602Q989.146157222276 373.91854353228763 988.0869182955423 373.91854353228763L988.0869182955423 373.91854353228763L945.9233243508393 373.91854353228763Q945.0700485487483 373.91854353228763 944.5404290853814 374.6835494238175Q944.0108096220147 375.419132011827 944.2167727466573 376.272407813918L944.2167727466573 376.272407813918Q945.5113981015539 379.4501245941189 945.9233243508393 383.3634239623293Q946.3352506001246 387.2767233305397 945.1877417628299 393.6321568909416Q944.0108096220147 399.98759045134346 940.7448229312525 410.69767293276135Q937.4494129369701 421.37833211065896 931.2999425012109 438.3261549383972L931.2999425012109 438.3261549383972L923.8852700140754 458.45169454633646L927.268949918919 458.45169454633646L919.8542774317835 438.3261549383972ZM916.47059752694 439.5913569897735L916.47059752694 439.5913569897735L916.47059752694 439.5913569897735L923.8852700140754 459.7168965977127Q924.3266195668812 460.7761355244464 925.5918216182574 460.7761355244464Q926.8570236696338 460.7761355244464 927.268949918919 459.7168965977127L927.268949918919 459.7168965977127L934.6836224060545 439.5913569897735Q941.0390559664564 422.0256447881073 944.3344659607388 410.903636057404Q947.6298759550212 399.7816273267008 948.6891148817549 393.10253742757476Q949.7483538084886 386.4234475284487 949.307004255683 382.3924549461568Q948.8950780063975 378.39088566738525 947.6298759550212 374.9777824590213L947.6298759550212 374.9777824590213L945.9233243508393 377.3316467406516L988.0869182955423 377.3316467406516L986.8217162441659 374.565856209736Q984.7032383906987 377.3316467406516 982.46706732315 381.1272528947805Q980.2308962556011 384.9522823524298 977.2885659035633 391.71964216211694Q974.316812248005 398.5164252753245 969.8738934164277 409.63843400602775Q965.4015512813302 420.76044273673097 958.634191471643 438.3261549383972L958.634191471643 438.3261549383972Q952.2787579112411 454.8620515168502 948.3654585430307 465.4544407841866Q944.4521591748204 476.04683005152305 942.3336813213531 482.2845703978434Q940.2152034678858 488.5517340476841 939.3619276657947 492.1413770771704Q938.5086518637038 495.73102010665656 938.3026887390612 498.4968106375722L938.3026887390612 498.4968106375722L939.9798170397227 496.7902590333902L908.2026492377134 496.7902590333902L909.9092008418954 498.29084751292953Q909.4972745926101 495.52505698201395 908.5263055764376 491.9354139525277Q907.5847598637855 488.3163476195211 905.5545519208794 482.0786072732007Q903.5537672814936 475.8408669268804 899.7287378238443 465.3367475701051Q895.9331316697154 454.8620515168502 889.5776981093136 438.3261549383972L889.5776981093136 438.3261549383972Q883.016301424269 420.76044273673097 878.5439592891715 409.63843400602775Q874.1010404575942 398.5164252753245 871.0410168914749 391.71964216211694Q867.951570021835 384.9522823524298 865.7448222578066 381.1272528947805Q863.5086511902579 377.3316467406516 861.3901733367906 374.565856209736L861.3901733367906 374.565856209736L860.1249712854142 377.3316467406516L905.2603188856756 377.3316467406516L903.5537672814936 374.9777824590213Q902.2885652301172 378.39088566738525 901.8472156773116 382.3924549461568Q901.4352894280263 386.4234475284487 902.49452835476 393.10253742757476Q903.5537672814936 399.7816273267008 906.849177275776 410.903636057404Q910.115163966538 422.0256447881073 916.47059752694 439.5913569897735ZM1020.7173618996426 485.37401726748317L1020.7173618996426 388.7478885065587L1017.3042586912786 388.7478885065587L1017.3042586912786 485.37401726748317L1020.7173618996426 485.37401726748317ZM1018.1575344933697 486.8451824435021L1038.283074101309 499.9679758135912L1039.9896257054907 497.0256454615532L1019.8640860975516 483.87342878794385Q1019.6581229729089 483.6674656633012 1019.1285035095422 483.6674656633012Q1018.5988840461753 483.6674656633012 1018.1575344933697 483.87342878794385L1018.1575344933697 483.87342878794385L997.8260317607877 497.0256454615532L999.5325833649697 499.9679758135912L1019.8640860975516 486.8451824435021Q1020.2760123468369 486.4332561942168 1019.0108102954606 486.4332561942168Q1017.7456082440843 486.4332561942168 1018.1575344933697 486.8451824435021L1018.1575344933697 486.8451824435021ZM1019.8640860975516 387.2767233305397L999.5325833649697 374.15392996045074L997.8260317607877 377.0962603124886L1018.1575344933697 390.248476986098Q1018.5988840461753 390.4544401107407 1019.1285035095422 390.4544401107407Q1019.6581229729089 390.4544401107407 1019.8640860975516 390.248476986098L1019.8640860975516 390.248476986098L1039.9896257054907 377.0962603124886L1038.283074101309 374.15392996045074L1018.1575344933697 387.2767233305397Q1017.7456082440843 387.4826864551824 1019.0108102954606 387.4826864551824Q1020.2760123468369 387.4826864551824 1019.8640860975516 387.2767233305397L1019.8640860975516 387.2767233305397ZM998.6793075628788 500.2033622417542L998.6793075628788 500.2033622417542L1039.1363499033996 500.2033622417542Q1040.1955888301336 500.2033622417542 1040.6075150794186 499.3500864396632Q1041.0488646322242 498.4968106375722 1040.6075150794186 497.6435348354812L1040.6075150794186 497.6435348354812Q1039.1363499033996 494.90716760808596 1038.077110976666 491.1998313645182Q1037.0178720499325 487.4924951209504 1036.370559372484 480.81340522182444Q1035.752669998556 474.1343153226984 1035.429013659832 463.21826971663785Q1035.105357321108 452.30222411057724 1035.105357321108 435.14843815819626L1035.105357321108 435.14843815819626Q1035.105357321108 419.25985425719165 1035.429013659832 408.99112132857937Q1035.752669998556 398.72238839996714 1036.370559372484 392.57291796420793Q1037.0178720499325 386.4234475284487 1038.077110976666 382.8338044989625Q1039.1363499033996 379.2147381659559 1040.6075150794186 376.47837093856066L1040.6075150794186 376.47837093856066Q1041.0488646322242 375.419132011827 1040.6075150794186 374.6835494238175Q1040.1955888301336 373.91854353228763 1039.1363499033996 373.91854353228763L1039.1363499033996 373.91854353228763L998.6793075628788 373.91854353228763Q997.8260317607877 373.91854353228763 997.2964122974209 374.6835494238175Q996.7667928340542 375.419132011827 997.1787190833394 376.47837093856066L997.1787190833394 376.47837093856066Q998.6793075628788 379.2147381659559 999.7385464896124 382.8338044989625Q1000.7977854163461 386.4234475284487 1001.415674790274 392.57291796420793Q1002.0629874677223 398.72238839996714 1002.3866438064465 408.99112132857937Q1002.7103001451707 419.25985425719165 1002.7103001451707 435.14843815819626L1002.7103001451707 435.14843815819626Q1002.7103001451707 452.30222411057724 1002.3866438064465 463.21826971663785Q1002.0629874677223 474.1343153226984 1001.415674790274 480.81340522182444Q1000.7977854163461 487.4924951209504 999.7385464896124 491.1998313645182Q998.6793075628788 494.90716760808596 997.1787190833394 497.6435348354812L997.1787190833394 497.6435348354812Q996.7667928340542 498.4968106375722 997.2964122974209 499.3500864396632Q997.8260317607877 500.2033622417542 998.6793075628788 500.2033622417542ZM1039.1363499033996 496.7902590333902L998.6793075628788 496.7902590333902L1000.1504727388977 499.3500864396632Q1001.6510612184371 496.3783327841049 1002.7103001451707 492.5533033264556Q1003.7695390719044 488.7576971723268 1004.5051216599138 481.96091405911926Q1005.2407042479233 475.19355424943205 1005.6526304972086 463.9538523046473Q1006.0939800500142 452.7435736633829 1006.0939800500142 435.14843815819626L1006.0939800500142 435.14843815819626Q1006.0939800500142 418.8479280079063 1005.6526304972086 408.34380865113104Q1005.2407042479233 397.86911259787615 1004.5051216599138 391.5136790374743Q1003.7695390719044 385.1582454770724 1002.7103001451707 381.33321601942316Q1001.6510612184371 377.5376098652943 1000.1504727388977 374.7718193343787L1000.1504727388977 374.7718193343787L998.6793075628788 377.3316467406516L1039.1363499033996 377.3316467406516L1037.6651847273806 374.7718193343787Q1036.1645962478415 377.5376098652943 1035.105357321108 381.33321601942316Q1034.0461183943744 385.1582454770724 1033.310535806365 391.5136790374743Q1032.5749532183554 397.86911259787615 1032.1336036655498 408.34380865113104Q1031.7216774162644 418.8479280079063 1031.7216774162644 435.14843815819626L1031.7216774162644 435.14843815819626Q1031.7216774162644 452.7435736633829 1032.1336036655498 463.9538523046473Q1032.5749532183554 475.19355424943205 1033.310535806365 481.96091405911926Q1034.0461183943744 488.7576971723268 1035.105357321108 492.5533033264556Q1036.1645962478415 496.3783327841049 1037.6651847273806 499.3500864396632L1037.6651847273806 499.3500864396632L1039.1363499033996 496.7902590333902ZM1138.910772141005 392.16099171492266L1138.910772141005 392.16099171492266L1140.175974192381 389.18923805936436Q1135.115165986876 386.86479708125444 1129.4953150144834 385.5701717263577Q1123.8754640420912 384.30496967498146 1117.9319567309744 384.30496967498146L1117.9319567309744 384.30496967498146Q1117.9319567309744 384.30496967498146 1117.9319567309744 384.30496967498146Q1117.9319567309744 384.30496967498146 1117.9319567309744 384.30496967498146L1117.9319567309744 384.30496967498146Q1103.5439613095095 384.30496967498146 1092.6279157034487 390.98405957410745Q1081.7118700973883 397.6631494732335 1075.6800928757107 409.52074079194625Q1069.6483156540326 421.37833211065896 1069.6483156540326 437.26691601166357L1069.6483156540326 437.26691601166357Q1069.6483156540326 437.26691601166357 1069.6483156540326 437.26691601166357Q1069.6483156540326 437.26691601166357 1069.6483156540326 437.26691601166357L1069.6483156540326 437.26691601166357Q1069.6483156540326 453.15549991266823 1075.6800928757107 464.92482132081983Q1081.7118700973883 476.664719425451 1092.6279157034487 483.13784619993436Q1103.5439613095095 489.61097297441773 1117.9319567309744 489.61097297441773L1117.9319567309744 489.61097297441773Q1117.9319567309744 489.61097297441773 1117.9319567309744 489.61097297441773Q1117.9319567309744 489.61097297441773 1117.9319567309744 489.61097297441773L1117.9319567309744 489.61097297441773Q1124.0814271667336 489.61097297441773 1129.5835849250448 488.4340408336026Q1135.115165986876 487.2571086927874 1140.175974192381 485.1386308393201L1140.175974192381 485.1386308393201L1138.910772141005 482.19630048728226Q1134.261890184785 483.87342878794385 1128.9656955511168 485.050360928759Q1123.6695009174487 486.19786976605377 1117.9319567309744 486.19786976605377L1117.9319567309744 486.19786976605377Q1117.9319567309744 486.19786976605377 1117.9319567309744 486.19786976605377Q1117.9319567309744 486.19786976605377 1117.9319567309744 486.19786976605377L1117.9319567309744 486.19786976605377Q1104.3972371116001 486.19786976605377 1094.3344673076308 480.1660925443761Q1084.271697503661 474.1343153226984 1078.6518465312688 463.1299998060767Q1073.0319955588761 452.0962609859346 1073.0319955588761 437.26691601166357L1073.0319955588761 437.26691601166357Q1073.0319955588761 437.26691601166357 1073.0319955588761 437.26691601166357Q1073.0319955588761 437.26691601166357 1073.0319955588761 437.26691601166357L1073.0319955588761 437.26691601166357Q1073.0319955588761 422.4375710373926 1078.6518465312688 411.31556230668934Q1084.271697503661 400.1935535759861 1094.3344673076308 393.95581322966575Q1104.3972371116001 387.68864957982504 1117.9319567309744 387.68864957982504L1117.9319567309744 387.68864957982504Q1117.9319567309744 387.68864957982504 1117.9319567309744 387.68864957982504Q1117.9319567309744 387.68864957982504 1117.9319567309744 387.68864957982504L1117.9319567309744 387.68864957982504Q1123.4635377928062 387.68864957982504 1128.8480023370353 388.9832749347217Q1134.261890184785 390.248476986098 1138.910772141005 392.16099171492266ZM1140.6173237451867 391.9256052867596L1153.740117115276 381.5686024475862L1151.6216392618085 379.00877504131324L1138.4988458917196 389.395201184007Q1138.057496338914 389.6011643086497 1137.9692264283526 390.248476986098Q1137.851533214271 390.86636636002595 1138.057496338914 391.5136790374743L1138.057496338914 391.5136790374743L1151.2097130125235 415.46424810306274L1154.1814666680816 413.75769649888076L1141.0292499944721 389.80712743329235Q1140.8232868698296 389.395201184007 1140.4996305311051 390.86636636002595Q1140.175974192381 392.36695483956527 1140.6173237451867 391.9256052867596L1140.6173237451867 391.9256052867596ZM1141.0292499944721 484.5207414653922L1154.1814666680816 460.36420927516104L1151.2097130125235 458.65765767097906L1138.057496338914 482.8141898612102Q1137.851533214271 483.4615025386585 1137.9692264283526 483.9911220020254Q1138.057496338914 484.5207414653922 1138.4988458917196 484.9326677146775L1138.4988458917196 484.9326677146775L1151.6216392618085 495.1131307327286L1153.740117115276 492.5533033264556L1140.6173237451867 482.40226361192487Q1140.175974192381 481.96091405911926 1140.4996305311051 483.4615025386585Q1140.8232868698296 484.9326677146775 1141.0292499944721 484.5207414653922L1141.0292499944721 484.5207414653922ZM1088.5086532105956 437.0609528870209L1088.5086532105956 437.0609528870209Q1088.5086532105956 420.11313005928264 1096.6589082857408 410.3740165940372Q1104.8091633608856 400.6349031287918 1117.725993606332 400.6349031287918L1117.725993606332 400.6349031287918Q1127.0531808222922 400.6349031287918 1135.733055360804 405.16609187093013Q1144.4129298993157 409.72670391658886 1151.6216392618085 415.8761743523481L1151.6216392618085 415.8761743523481Q1152.4749150638995 416.72945015443906 1153.4164607765515 416.19983069107224Q1154.387429792724 415.6702112277054 1154.387429792724 414.61097230097175L1154.387429792724 414.61097230097175L1154.387429792724 380.27397709268956Q1154.387429792724 379.86205084340423 1154.063773454 379.4501245941189Q1153.740117115276 379.00877504131324 1153.3281908659906 378.8028119166706L1153.3281908659906 378.8028119166706Q1145.9135183788553 375.419132011827 1136.9982574121805 373.38892406892086Q1128.1124197490258 371.3881394295351 1117.9319567309744 371.3881394295351L1117.9319567309744 371.3881394295351Q1098.6596929251264 371.3881394295351 1084.3599674142224 379.86205084340423Q1070.060241903318 388.33596225727337 1062.1159499528158 403.1653072315444Q1054.1716580023135 417.9946522058154 1054.1716580023135 437.47287913630623L1054.1716580023135 437.47287913630623Q1054.1716580023135 456.77456624567486 1062.1159499528158 471.4862180058643Q1070.060241903318 486.19786976605377 1084.3599674142224 494.4658180552803Q1098.6596929251264 502.73376634450676 1117.9319567309744 502.73376634450676L1117.9319567309744 502.73376634450676Q1128.1124197490258 502.73376634450676 1136.9982574121805 500.732981705121Q1145.9135183788553 498.70277376221486 1153.3281908659906 495.31909385737123L1153.3281908659906 495.31909385737123Q1154.387429792724 494.90716760808596 1154.387429792724 493.84792868135236L1154.387429792724 493.84792868135236L1154.387429792724 459.51093347307005Q1154.387429792724 458.45169454633646 1153.4164607765515 457.9220750829696Q1152.4749150638995 457.3924556196028 1151.6216392618085 458.2457314216938L1151.6216392618085 458.2457314216938Q1144.2069667746732 464.8071281067383 1135.733055360804 469.04408381367284Q1127.2591439469347 473.2810395206074 1117.9319567309744 473.2810395206074L1117.9319567309744 473.2810395206074Q1105.0151264855285 473.2810395206074 1096.7471781963018 463.65961926944345Q1088.5086532105956 454.0087757147592 1088.5086532105956 437.0609528870209ZM1085.095550002232 437.0609528870209L1085.095550002232 437.0609528870209Q1085.095550002232 455.7153273189412 1094.4227372181917 466.1900233721961Q1103.749924434152 476.664719425451 1117.9319567309744 476.664719425451L1117.9319567309744 476.664719425451Q1127.9064566243833 476.664719425451 1136.909987501619 472.13353068331264Q1145.9135183788553 467.5729186376539 1153.740117115276 460.7761355244464L1153.740117115276 460.7761355244464L1151.0037498878805 459.51093347307005L1151.0037498878805 493.84792868135236L1152.062988814614 492.347340201813Q1144.8542794521213 495.31909385737123 1136.3803680382525 497.31987849675704Q1127.9064566243833 499.3500864396632 1117.9319567309744 499.3500864396632L1117.9319567309744 499.3500864396632Q1099.5129687272174 499.3500864396632 1085.948825804323 491.494064399722Q1072.384682881428 483.6674656633012 1064.9700103942923 469.77966640168233Q1057.555337907157 455.9212904435838 1057.555337907157 437.47287913630623L1057.555337907157 437.47287913630623Q1057.555337907157 418.8479280079063 1064.9700103942923 404.7541656216448Q1072.384682881428 390.6604032353833 1085.948825804323 382.716111284881Q1099.5129687272174 374.7718193343787 1117.9319567309744 374.7718193343787L1117.9319567309744 374.7718193343787Q1127.9064566243833 374.7718193343787 1136.3803680382525 376.8020272772848Q1144.8542794521213 378.8028119166706 1152.062988814614 381.7745655722288L1152.062988814614 381.7745655722288L1151.0037498878805 380.27397709268956L1151.0037498878805 414.61097230097175L1153.740117115276 413.3457702495955Q1146.3254446281403 406.9903366891936 1136.9982574121805 402.1060683048107Q1127.7004934997403 397.2217999204278 1117.725993606332 397.2217999204278L1117.725993606332 397.2217999204278Q1103.5439613095095 397.2217999204278 1094.3344673076308 407.8141891877642Q1085.095550002232 418.40657845510066 1085.095550002232 437.0609528870209ZM1229.7993567154554 486.6392193188595L1229.7993567154554 486.6392193188595Q1216.6765633453665 486.6392193188595 1206.702063451958 480.3720556690188Q1196.7569868620699 474.1343153226984 1191.1371358896777 462.8946133779137Q1185.517284917285 451.6843347366493 1185.517284917285 436.85498976237824L1185.517284917285 436.85498976237824Q1185.517284917285 436.85498976237824 1185.517284917285 436.85498976237824Q1185.517284917285 436.85498976237824 1185.517284917285 436.85498976237824L1185.517284917285 436.85498976237824Q1185.517284917285 422.0256447881073 1191.1371358896777 410.903636057404Q1196.7569868620699 399.7816273267008 1206.702063451958 393.6321568909416Q1216.6765633453665 387.4826864551824 1229.7993567154554 387.4826864551824L1229.7993567154554 387.4826864551824Q1229.7993567154554 387.4826864551824 1229.7993567154554 387.4826864551824Q1229.7993567154554 387.4826864551824 1229.7993567154554 387.4826864551824L1229.7993567154554 387.4826864551824Q1242.9221500855447 387.4826864551824 1252.896649978953 393.7498501050231Q1262.8417265688408 399.98759045134346 1268.4615775412335 410.9919059679652Q1274.0814285136257 422.0256447881073 1274.0814285136257 436.85498976237824L1274.0814285136257 436.85498976237824Q1274.0814285136257 436.85498976237824 1274.0814285136257 436.85498976237824Q1274.0814285136257 436.85498976237824 1274.0814285136257 436.85498976237824L1274.0814285136257 436.85498976237824Q1274.0814285136257 451.6843347366493 1268.4615775412335 462.8946133779137Q1262.8417265688408 474.1343153226984 1252.896649978953 480.3720556690188Q1242.9221500855447 486.6392193188595 1229.7993567154554 486.6392193188595L1229.7993567154554 486.6392193188595Q1229.7993567154554 486.6392193188595 1229.7993567154554 486.6392193188595Q1229.7993567154554 486.6392193188595 1229.7993567154554 486.6392193188595ZM1229.7993567154554 490.02289922370306L1229.7993567154554 490.02289922370306Q1229.7993567154554 490.02289922370306 1229.7993567154554 490.02289922370306Q1229.7993567154554 490.02289922370306 1229.7993567154554 490.02289922370306L1229.7993567154554 490.02289922370306Q1243.7754258876353 490.02289922370306 1254.4855083690536 483.343809324577Q1265.1661675469509 476.664719425451 1271.31563798271 464.7188581961771Q1277.4651084184693 452.7435736633829 1277.4651084184693 436.85498976237824L1277.4651084184693 436.85498976237824Q1277.4651084184693 436.85498976237824 1277.4651084184693 436.85498976237824Q1277.4651084184693 436.85498976237824 1277.4651084184693 436.85498976237824L1277.4651084184693 436.85498976237824Q1277.4651084184693 420.96640586137363 1271.31563798271 409.1088145426609Q1265.1661675469509 397.2217999204278 1254.4855083690536 390.6604032353833Q1243.7754258876353 384.0990065503388 1229.7993567154554 384.0990065503388L1229.7993567154554 384.0990065503388Q1229.7993567154554 384.0990065503388 1229.7993567154554 384.0990065503388Q1229.7993567154554 384.0990065503388 1229.7993567154554 384.0990065503388L1229.7993567154554 384.0990065503388Q1215.8232875432755 384.0990065503388 1205.1132050618576 390.6604032353833Q1194.4325458839598 397.2217999204278 1188.2830754482006 409.1088145426609Q1182.1336050124414 420.96640586137363 1182.1336050124414 436.85498976237824L1182.1336050124414 436.85498976237824Q1182.1336050124414 436.85498976237824 1182.1336050124414 436.85498976237824Q1182.1336050124414 436.85498976237824 1182.1336050124414 436.85498976237824L1182.1336050124414 436.85498976237824Q1182.1336050124414 452.7435736633829 1188.2830754482006 464.7188581961771Q1194.4325458839598 476.664719425451 1205.1132050618576 483.343809324577Q1215.8232875432755 490.02289922370306 1229.7993567154554 490.02289922370306ZM1229.7993567154554 477.1060689782567L1229.7993567154554 477.1060689782567Q1244.2167754404413 477.1060689782567 1253.1026131035956 466.3077165862776Q1261.9884507667498 455.47994089077815 1261.9884507667498 436.85498976237824L1261.9884507667498 436.85498976237824Q1261.9884507667498 418.200615330458 1253.1026131035956 407.6082260631216Q1244.2167754404413 397.01583679578516 1229.7993567154554 397.01583679578516L1229.7993567154554 397.01583679578516Q1215.617324418633 397.01583679578516 1206.6137935413967 407.51995615256044Q1197.610262664161 417.9946522058154 1197.610262664161 436.85498976237824L1197.610262664161 436.85498976237824Q1197.610262664161 455.47994089077815 1206.6137935413967 466.3077165862776Q1215.617324418633 477.1060689782567 1229.7993567154554 477.1060689782567ZM1229.7993567154554 499.3500864396632L1229.7993567154554 499.3500864396632Q1212.2042212102688 499.3500864396632 1198.7577715014554 491.2881012750793Q1185.3113217926425 483.2555394140159 1177.6906861808643 469.16177702775434Q1170.070050569086 455.0680146414929 1170.070050569086 436.85498976237824L1170.070050569086 436.85498976237824Q1170.070050569086 418.6419648832637 1177.6906861808643 404.6364724075633Q1185.3113217926425 390.6604032353833 1198.7577715014554 382.716111284881Q1212.2042212102688 374.7718193343787 1229.7993567154554 374.7718193343787L1229.7993567154554 374.7718193343787Q1247.1591057924793 374.7718193343787 1260.6349788048128 382.716111284881Q1274.0814285136257 390.6604032353833 1281.8197573394855 404.6364724075633Q1289.5286628618246 418.6419648832637 1289.5286628618246 436.85498976237824L1289.5286628618246 436.85498976237824Q1289.5286628618246 455.0680146414929 1281.8197573394855 469.16177702775434Q1274.0814285136257 483.2555394140159 1260.6349788048128 491.2881012750793Q1247.1591057924793 499.3500864396632 1229.7993567154554 499.3500864396632ZM1229.7993567154554 473.7223890734131L1229.7993567154554 473.7223890734131Q1216.882526470009 473.7223890734131 1208.9382345195068 463.8655823940862Q1200.9939425690045 454.0087757147592 1200.9939425690045 436.85498976237824L1200.9939425690045 436.85498976237824Q1200.9939425690045 419.70120380999737 1208.9382345195068 410.050360255313Q1216.882526470009 400.39951670062874 1229.7993567154554 400.39951670062874L1229.7993567154554 400.39951670062874Q1242.9221500855447 400.39951670062874 1250.7781721254855 410.1680534693946Q1258.6047708619067 419.90716693464 1258.6047708619067 436.85498976237824L1258.6047708619067 436.85498976237824Q1258.6047708619067 454.0087757147592 1250.7781721254855 463.8655823940862Q1242.9221500855447 473.7223890734131 1229.7993567154554 473.7223890734131ZM1229.7993567154554 502.73376634450676L1229.7993567154554 502.73376634450676Q1248.01238159457 502.73376634450676 1262.3121071054743 494.25985493063763Q1276.6118326163783 485.7859435167685 1284.7620876915234 470.9565985424975Q1292.9417660701888 456.1272535682265 1292.9417660701888 436.85498976237824L1292.9417660701888 436.85498976237824Q1292.9417660701888 417.58272595653006 1284.7620876915234 402.8416508928202Q1276.6118326163783 388.1299991326307 1262.3121071054743 379.7443576293227Q1248.01238159457 371.3881394295351 1229.7993567154554 371.3881394295351L1229.7993567154554 371.3881394295351Q1211.3803687116983 371.3881394295351 1197.080643200794 379.7443576293227Q1182.78091768989 388.1299991326307 1174.7189325253062 402.9593441069017Q1166.6569473607224 417.7886890811727 1166.6569473607224 436.85498976237824L1166.6569473607224 436.85498976237824Q1166.6569473607224 456.1272535682265 1174.7189325253062 470.9565985424975Q1182.78091768989 485.7859435167685 1197.080643200794 494.25985493063763Q1211.3803687116983 502.73376634450676 1229.7993567154554 502.73376634450676ZM1324.2775843193922 388.54192538191603L1324.2775843193922 485.37401726748317L1327.6612642242358 485.37401726748317L1327.6612642242358 388.54192538191603Q1327.6612642242358 387.2767233305397 1325.7781727989318 387.92403600798804Q1323.8656580701067 388.54192538191603 1324.7189338721978 389.6011643086497L1324.7189338721978 389.6011643086497L1398.4243091907474 486.8451824435021Q1399.0716218681955 487.69845824559314 1400.2191307054904 487.374801906869Q1401.3960628463055 487.0511455681448 1401.3960628463055 485.7859435167685L1401.3960628463055 485.7859435167685L1401.3960628463055 388.7478885065587L1398.012382941462 388.7478885065587L1398.012382941462 485.7859435167685Q1398.012382941462 487.0511455681448 1399.9248976702866 486.3155629801353Q1401.807989095591 485.57998039212583 1400.98413659702 484.72670459003484L1400.98413659702 484.72670459003484L1327.2493379749508 387.4826864551824Q1326.6020252975022 386.4234475284487 1325.4545164602073 386.86479708125444Q1324.2775843193922 387.2767233305397 1324.2775843193922 388.54192538191603L1324.2775843193922 388.54192538191603ZM1324.9248969968407 486.8451824435021L1344.1971608026888 499.9679758135912L1346.315638656156 497.0256454615532L1327.0433748503078 483.87342878794385Q1326.6020252975022 483.6674656633012 1325.9841359235743 483.6674656633012Q1325.3368232461257 483.6674656633012 1324.9248969968407 483.87342878794385L1324.9248969968407 483.87342878794385L1305.8585963156352 497.0256454615532L1307.9770741691023 499.9679758135912L1327.0433748503078 486.8451824435021Q1327.4553010995933 486.4332561942168 1326.0724058341352 486.4332561942168Q1324.7189338721978 486.4332561942168 1324.9248969968407 486.8451824435021L1324.9248969968407 486.8451824435021ZM1400.748750168857 387.2767233305397L1381.6824494876519 374.15392996045074L1379.5639716341843 377.0962603124886L1398.63027231539 390.248476986098Q1399.0716218681955 390.4544401107407 1399.6895112421234 390.4544401107407Q1400.336823919572 390.4544401107407 1400.748750168857 390.248476986098L1400.748750168857 390.248476986098L1420.0504372782257 377.0962603124886L1417.9319594247586 374.15392996045074L1398.63027231539 387.2767233305397Q1398.4243091907474 387.4826864551824 1399.807204456205 387.4826864551824Q1401.190099721663 387.4826864551824 1400.748750168857 387.2767233305397L1400.748750168857 387.2767233305397ZM1326.8374117256653 387.0707602058971L1307.7711110444598 374.15392996045074L1306.0645594402777 377.0962603124886L1325.1308601214832 390.04251386145535Q1325.5427863707687 390.248476986098 1326.3077922622983 390.1307837720165Q1327.0433748503078 390.04251386145535 1327.4553010995933 389.395201184007L1327.4553010995933 389.395201184007L1335.3113231395346 376.47837093856066L1332.339569483976 374.7718193343787L1324.4835474440351 387.68864957982504Q1324.2775843193922 388.33596225727337 1325.8664427094927 387.92403600798804Q1327.4553010995933 387.4826864551824 1326.8374117256653 387.0707602058971L1326.8374117256653 387.0707602058971ZM1398.63027231539 487.0511455681448L1415.813481571291 499.76201268894846L1417.9319594247586 497.23160858619593L1400.748750168857 484.5207414653922Q1400.1308607949295 484.0793919125865 1399.483548117481 484.197085126668Q1398.865658743553 484.31477834074957 1398.4243091907474 484.72670459003484L1398.4243091907474 484.72670459003484L1388.6851957255017 497.43757171083854L1391.2155998282547 499.55604956430585L1400.98413659702 486.8451824435021Q1401.3960628463055 486.19786976605377 1399.807204456205 486.4332561942168Q1398.218346066105 486.6392193188595 1398.63027231539 487.0511455681448L1398.63027231539 487.0511455681448ZM1341.2254071471307 431.3528320040674L1327.6612642242358 388.33596225727337L1324.2775843193922 389.18923805936436L1337.841727242287 432.176684502638L1341.2254071471307 431.3528320040674ZM1401.3960628463055 485.37401726748317L1388.0378830480536 443.62234957206545L1384.65420314321 444.47562537415644L1398.012382941462 486.19786976605377L1401.3960628463055 485.37401726748317ZM1418.5498487986865 498.08488438828687L1418.5498487986865 498.08488438828687Q1417.6965729965955 494.05389180599497 1416.960990408586 489.49327976033624Q1416.2254078205765 484.9326677146775 1415.813481571291 477.42972531698086Q1415.3721320184854 469.89735961576383 1415.166168893843 457.30418570904163Q1414.9602057692 444.68158849879904 1414.9602057692 424.55604889085987L1414.9602057692 424.55604889085987Q1414.9602057692 411.43325552077084 1415.3721320184854 403.0476140174629Q1415.813481571291 394.69139581767524 1416.5490641593005 389.7188575227312Q1417.28464674731 384.7463192277871 1418.2261924599625 381.7745655722288Q1419.1971614761346 378.8028119166706 1420.4623635275111 376.47837093856066L1420.4623635275111 376.47837093856066Q1420.8742897767966 375.419132011827 1420.4623635275111 374.6835494238175Q1420.0504372782257 373.91854353228763 1418.9911983514921 373.91854353228763L1418.9911983514921 373.91854353228763L1380.6232105609179 373.91854353228763Q1379.7993580623474 373.91854353228763 1379.2697385989804 374.6835494238175Q1378.740119135614 375.419132011827 1379.1520453848989 376.47837093856066L1379.1520453848989 376.47837093856066Q1380.4172474362754 378.8028119166706 1381.388216452448 381.7745655722288Q1382.3297621651 384.7463192277871 1383.0653447531095 389.7188575227312Q1383.800927341119 394.69139581767524 1384.2422768939246 403.0476140174629Q1384.65420314321 411.43325552077084 1384.65420314321 424.55604889085987L1384.65420314321 424.55604889085987L1384.65420314321 444.0636991248711L1387.6259567987681 443.00446019813745L1335.0759367113715 374.565856209736Q1334.8699735867285 373.91854353228763 1333.810734659995 373.91854353228763L1333.810734659995 373.91854353228763L1306.9178352423687 373.91854353228763Q1306.0645594402777 373.91854353228763 1305.5349399769111 374.6835494238175Q1305.0053205135441 375.419132011827 1305.4172467628296 376.47837093856066L1305.4172467628296 376.47837093856066Q1306.7118721177262 378.8028119166706 1307.6534178303782 381.7745655722288Q1308.5949635430302 384.7463192277871 1309.3599694345603 389.7188575227312Q1310.0955520225698 394.69139581767524 1310.5074782718548 403.0476140174629Q1310.9488278246608 411.43325552077084 1310.9488278246608 424.55604889085987L1310.9488278246608 424.55604889085987Q1310.9488278246608 444.47562537415644 1310.6251714859363 457.30418570904163Q1310.3015151472123 470.1033227404065 1309.7718956838453 477.95934478034764Q1309.2422762204787 485.7859435167685 1308.1830372937452 490.14059243778456Q1307.1237983670112 494.4658180552803 1305.4172467628296 497.6435348354812L1305.4172467628296 497.6435348354812Q1305.0053205135441 498.4968106375722 1305.5349399769111 499.3500864396632Q1306.0645594402777 500.2033622417542 1306.9178352423687 500.2033622417542L1306.9178352423687 500.2033622417542L1345.2563997294224 500.2033622417542Q1346.315638656156 500.2033622417542 1346.7275649054413 499.3500864396632Q1347.1689144582474 498.4968106375722 1346.7275649054413 497.6435348354812L1346.7275649054413 497.6435348354812Q1345.2563997294224 494.6717811799229 1344.1971608026888 490.55251868706983Q1343.1379218759553 486.4332561942168 1342.4906091985067 479.4305099563666Q1341.8727198245788 472.4277637185164 1341.5490634858547 460.8938287385279Q1341.2254071471307 449.35989375853933 1341.2254071471307 431.7647582533527L1341.2254071471307 431.7647582533527L1338.2536534915725 432.82399718008634L1388.6851957255017 499.55604956430585Q1389.0971219747871 500.2033622417542 1389.9503977768782 500.2033622417542L1389.9503977768782 500.2033622417542L1416.872720498025 500.2033622417542Q1417.6965729965955 500.2033622417542 1418.2261924599625 499.55604956430585Q1418.755811923329 498.9087368868575 1418.5498487986865 498.08488438828687ZM1415.166168893843 498.9087368868575L1415.166168893843 498.9087368868575L1416.872720498025 496.7902590333902L1389.9503977768782 496.7902590333902L1391.2155998282547 497.43757171083854L1340.8134808978452 430.7055193266191Q1340.1661682203967 429.6462803998854 1339.0186593831022 430.0582066491707Q1337.841727242287 430.4995562019764 1337.841727242287 431.7647582533527L1337.841727242287 431.7647582533527Q1337.841727242287 449.7718200078246 1338.2536534915725 461.5411414159762Q1338.6950030443782 473.2810395206074 1339.4305856323876 480.4897488831003Q1340.1661682203967 487.69845824559314 1341.2254071471307 491.9354139525277Q1342.2846460738642 496.1723696594623 1343.7852345534034 499.3500864396632L1343.7852345534034 499.3500864396632L1345.2563997294224 496.7902590333902L1306.9178352423687 496.7902590333902L1308.3890004183877 499.3500864396632Q1310.0955520225698 496.1723696594623 1311.1547909493033 491.6117576138035Q1312.2140298760369 487.0511455681448 1312.9496124640464 479.10685361764246Q1313.6851950520559 471.16256166714015 1314.00885139078 458.0397682970511Q1314.332507729504 444.8875516234417 1314.332507729504 424.55604889085987L1314.332507729504 424.55604889085987Q1314.332507729504 411.2272923961282 1313.8911581766984 402.51799455409605Q1313.4792319274134 393.83812001558425 1312.6259561253223 388.65961859599753Q1311.7726803232313 383.4516938728904 1310.7134413964977 380.391670306771Q1309.6542024697642 377.3316467406516 1308.3890004183877 374.7718193343787L1308.3890004183877 374.7718193343787L1306.9178352423687 377.3316467406516L1333.810734659995 377.3316467406516L1332.545532608619 376.68433406320327L1385.0955526960156 445.12293805160476Q1385.7134420699435 445.94679055017536 1386.8903742107586 445.6525575149716Q1388.0378830480536 445.3289011762474 1388.0378830480536 444.0636991248711L1388.0378830480536 444.0636991248711L1388.0378830480536 424.55604889085987Q1388.0378830480536 411.2272923961282 1387.6259567987681 402.51799455409605Q1387.2140305494827 393.83812001558425 1386.360754747392 388.65961859599753Q1385.507478945301 383.4516938728904 1384.448240018567 380.391670306771Q1383.3890010918335 377.3316467406516 1382.1237990404575 374.7718193343787L1382.1237990404575 374.7718193343787L1380.6232105609179 377.3316467406516L1418.9911983514921 377.3316467406516L1417.490609871953 374.7718193343787Q1416.2254078205765 377.3316467406516 1415.166168893843 380.391670306771Q1414.1069299671094 383.4516938728904 1413.2536541650184 388.65961859599753Q1412.4003783629273 393.83812001558425 1411.9884521136419 402.51799455409605Q1411.5765258643569 411.2272923961282 1411.5765258643569 424.55604889085987L1411.5765258643569 424.55604889085987Q1411.5765258643569 444.8875516234417 1411.7824889889994 457.5984187442454Q1411.9884521136419 470.30928586504916 1412.4003783629273 477.95934478034764Q1412.841727915733 485.57998039212583 1413.5773105037424 490.2288623483457Q1414.312893091752 494.90716760808596 1415.166168893843 498.9087368868575ZM1459.4482406920133 480.07782263381495L1442.5004178642748 463.1299998060767L1439.9405904580021 465.6604039088293L1456.8884132857402 482.6082267365676Q1456.8884132857402 482.6082267365676 1456.8884132857402 482.6082267365676Q1456.8884132857402 482.6082267365676 1456.8884132857402 482.6082267365676L1456.8884132857402 482.6082267365676L1474.0716225416418 499.76201268894846L1476.6020266443943 497.23160858619593L1459.4482406920133 480.07782263381495Q1459.4482406920133 480.07782263381495 1459.4482406920133 480.07782263381495Q1459.4482406920133 480.07782263381495 1459.4482406920133 480.07782263381495L1459.4482406920133 480.07782263381495ZM1456.8884132857402 480.07782263381495L1439.9405904580021 497.23160858619593L1442.5004178642748 499.76201268894846L1459.4482406920133 482.6082267365676Q1459.4482406920133 482.6082267365676 1459.4482406920133 482.6082267365676Q1459.4482406920133 482.6082267365676 1459.4482406920133 482.6082267365676L1459.4482406920133 482.6082267365676L1476.6020266443943 465.6604039088293L1474.0716225416418 463.1299998060767L1456.8884132857402 480.07782263381495Q1456.8884132857402 480.07782263381495 1456.8884132857402 480.07782263381495Q1456.8884132857402 480.07782263381495 1456.8884132857402 480.07782263381495L1456.8884132857402 480.07782263381495ZM1441.2352158128983 500.2033622417542L1441.2352158128983 500.2033622417542L1475.3368245930178 500.2033622417542Q1475.9547139669457 500.2033622417542 1476.4843334303127 499.67374277838735Q1477.0139528936797 499.1441233150205 1477.0139528936797 498.4968106375722L1477.0139528936797 498.4968106375722L1477.0139528936797 464.39520185745295Q1477.0139528936797 463.7478891800046 1476.4843334303127 463.21826971663785Q1475.9547139669457 462.688650253271 1475.3368245930178 462.688650253271L1475.3368245930178 462.688650253271L1441.2352158128983 462.688650253271Q1440.5879031354502 462.688650253271 1440.0582836720837 463.21826971663785Q1439.5286642087167 463.7478891800046 1439.5286642087167 464.39520185745295L1439.5286642087167 464.39520185745295L1439.5286642087167 498.4968106375722Q1439.5286642087167 499.1441233150205 1440.0582836720837 499.67374277838735Q1440.5879031354502 500.2033622417542 1441.2352158128983 500.2033622417542ZM1475.3368245930178 496.7902590333902L1441.2352158128983 496.7902590333902L1442.9123441135603 498.4968106375722L1442.9123441135603 464.39520185745295L1441.2352158128983 466.0723301581146L1475.3368245930178 466.0723301581146L1473.6302729888357 464.39520185745295L1473.6302729888357 498.4968106375722L1475.3368245930178 496.7902590333902ZM1512.2042239040525 485.37401726748317L1512.2042239040525 388.7478885065587L1508.7911206956887 388.7478885065587L1508.7911206956887 485.37401726748317L1512.2042239040525 485.37401726748317ZM1509.6443964977798 486.8451824435021L1529.769936105719 499.9679758135912L1531.476487709901 497.0256454615532L1511.3509481019619 483.87342878794385Q1511.144984977319 483.6674656633012 1510.6153655139524 483.6674656633012Q1510.0857460505854 483.6674656633012 1509.6443964977798 483.87342878794385L1509.6443964977798 483.87342878794385L1489.3128937651982 497.0256454615532L1491.0194453693798 499.9679758135912L1511.3509481019619 486.8451824435021Q1511.7628743512469 486.4332561942168 1510.4976722998708 486.4332561942168Q1509.2324702484943 486.4332561942168 1509.6443964977798 486.8451824435021L1509.6443964977798 486.8451824435021ZM1511.3509481019619 387.2767233305397L1491.0194453693798 374.15392996045074L1489.3128937651982 377.0962603124886L1509.6443964977798 390.248476986098Q1510.0857460505854 390.4544401107407 1510.6153655139524 390.4544401107407Q1511.144984977319 390.4544401107407 1511.3509481019619 390.248476986098L1511.3509481019619 390.248476986098L1531.476487709901 377.0962603124886L1529.769936105719 374.15392996045074L1509.6443964977798 387.2767233305397Q1509.2324702484943 387.4826864551824 1510.4976722998708 387.4826864551824Q1511.7628743512469 387.4826864551824 1511.3509481019619 387.2767233305397L1511.3509481019619 387.2767233305397ZM1490.1661695672888 500.2033622417542L1490.1661695672888 500.2033622417542L1530.62321190781 500.2033622417542Q1531.6824508345435 500.2033622417542 1532.094377083829 499.3500864396632Q1532.5357266366345 498.4968106375722 1532.094377083829 497.6435348354812L1532.094377083829 497.6435348354812Q1530.62321190781 494.90716760808596 1529.5639729810764 491.1998313645182Q1528.5047340543429 487.4924951209504 1527.8574213768943 480.81340522182444Q1527.2395320029664 474.1343153226984 1526.9158756642423 463.21826971663785Q1526.5922193255178 452.30222411057724 1526.5922193255178 435.14843815819626L1526.5922193255178 435.14843815819626Q1526.5922193255178 419.25985425719165 1526.9158756642423 408.99112132857937Q1527.2395320029664 398.72238839996714 1527.8574213768943 392.57291796420793Q1528.5047340543429 386.4234475284487 1529.5639729810764 382.8338044989625Q1530.62321190781 379.2147381659559 1532.094377083829 376.47837093856066L1532.094377083829 376.47837093856066Q1532.5357266366345 375.419132011827 1532.094377083829 374.6835494238175Q1531.6824508345435 373.91854353228763 1530.62321190781 373.91854353228763L1530.62321190781 373.91854353228763L1490.1661695672888 373.91854353228763Q1489.3128937651982 373.91854353228763 1488.7832743018312 374.6835494238175Q1488.2536548384642 375.419132011827 1488.6655810877496 376.47837093856066L1488.6655810877496 376.47837093856066Q1490.1661695672888 379.2147381659559 1491.2254084940223 382.8338044989625Q1492.2846474207563 386.4234475284487 1492.9025367946842 392.57291796420793Q1493.5498494721328 398.72238839996714 1493.8735058108568 408.99112132857937Q1494.197162149581 419.25985425719165 1494.197162149581 435.14843815819626L1494.197162149581 435.14843815819626Q1494.197162149581 452.30222411057724 1493.8735058108568 463.21826971663785Q1493.5498494721328 474.1343153226984 1492.9025367946842 480.81340522182444Q1492.2846474207563 487.4924951209504 1491.2254084940223 491.1998313645182Q1490.1661695672888 494.90716760808596 1488.6655810877496 497.6435348354812L1488.6655810877496 497.6435348354812Q1488.2536548384642 498.4968106375722 1488.7832743018312 499.3500864396632Q1489.3128937651982 500.2033622417542 1490.1661695672888 500.2033622417542ZM1530.62321190781 496.7902590333902L1490.1661695672888 496.7902590333902L1491.6373347433077 499.3500864396632Q1493.1379232228473 496.3783327841049 1494.197162149581 492.5533033264556Q1495.2564010763144 488.7576971723268 1495.991983664324 481.96091405911926Q1496.7275662523334 475.19355424943205 1497.1394925016189 463.9538523046473Q1497.5808420544245 452.7435736633829 1497.5808420544245 435.14843815819626L1497.5808420544245 435.14843815819626Q1497.5808420544245 418.8479280079063 1497.1394925016189 408.34380865113104Q1496.7275662523334 397.86911259787615 1495.991983664324 391.5136790374743Q1495.2564010763144 385.1582454770724 1494.197162149581 381.33321601942316Q1493.1379232228473 377.5376098652943 1491.6373347433077 374.7718193343787L1491.6373347433077 374.7718193343787L1490.1661695672888 377.3316467406516L1530.62321190781 377.3316467406516L1529.152046731791 374.7718193343787Q1527.6514582522518 377.5376098652943 1526.5922193255178 381.33321601942316Q1525.5329803987843 385.1582454770724 1524.7973978107748 391.5136790374743Q1524.0618152227657 397.86911259787615 1523.6204656699597 408.34380865113104Q1523.2085394206747 418.8479280079063 1523.2085394206747 435.14843815819626L1523.2085394206747 435.14843815819626Q1523.2085394206747 452.7435736633829 1523.6204656699597 463.9538523046473Q1524.0618152227657 475.19355424943205 1524.7973978107748 481.96091405911926Q1525.5329803987843 488.7576971723268 1526.5922193255178 492.5533033264556Q1527.6514582522518 496.3783327841049 1529.152046731791 499.3500864396632L1529.152046731791 499.3500864396632L1530.62321190781 496.7902590333902ZM1608.8009293614568 486.6392193188595L1608.8009293614568 486.6392193188595Q1595.6487126878474 486.6392193188595 1585.7036360979596 480.3720556690188Q1575.7585595080714 474.1343153226984 1570.1387085356787 462.8946133779137Q1564.5188575632865 451.6843347366493 1564.5188575632865 436.85498976237824L1564.5188575632865 436.85498976237824Q1564.5188575632865 436.85498976237824 1564.5188575632865 436.85498976237824Q1564.5188575632865 436.85498976237824 1564.5188575632865 436.85498976237824L1564.5188575632865 436.85498976237824Q1564.5188575632865 422.0256447881073 1570.1387085356787 410.903636057404Q1575.7585595080714 399.7816273267008 1585.7036360979596 393.6321568909416Q1595.6487126878474 387.4826864551824 1608.8009293614568 387.4826864551824L1608.8009293614568 387.4826864551824Q1608.8009293614568 387.4826864551824 1608.8009293614568 387.4826864551824Q1608.8009293614568 387.4826864551824 1608.8009293614568 387.4826864551824L1608.8009293614568 387.4826864551824Q1621.9237227315457 387.4826864551824 1631.8982226249545 393.7498501050231Q1641.8432992148423 399.98759045134346 1647.463150187235 410.9919059679652Q1653.0830011596272 422.0256447881073 1653.0830011596272 436.85498976237824L1653.0830011596272 436.85498976237824Q1653.0830011596272 436.85498976237824 1653.0830011596272 436.85498976237824Q1653.0830011596272 436.85498976237824 1653.0830011596272 436.85498976237824L1653.0830011596272 436.85498976237824Q1653.0830011596272 451.6843347366493 1647.463150187235 462.8946133779137Q1641.8432992148423 474.1343153226984 1631.8982226249545 480.3720556690188Q1621.9237227315457 486.6392193188595 1608.8009293614568 486.6392193188595L1608.8009293614568 486.6392193188595Q1608.8009293614568 486.6392193188595 1608.8009293614568 486.6392193188595Q1608.8009293614568 486.6392193188595 1608.8009293614568 486.6392193188595ZM1608.8009293614568 490.02289922370306L1608.8009293614568 490.02289922370306Q1608.8009293614568 490.02289922370306 1608.8009293614568 490.02289922370306Q1608.8009293614568 490.02289922370306 1608.8009293614568 490.02289922370306L1608.8009293614568 490.02289922370306Q1622.7769985336367 490.02289922370306 1633.4870810150546 483.343809324577Q1644.1677401929524 476.664719425451 1650.3172106287116 464.7188581961771Q1656.4666810644708 452.7435736633829 1656.4666810644708 436.85498976237824L1656.4666810644708 436.85498976237824Q1656.4666810644708 436.85498976237824 1656.4666810644708 436.85498976237824Q1656.4666810644708 436.85498976237824 1656.4666810644708 436.85498976237824L1656.4666810644708 436.85498976237824Q1656.4666810644708 420.96640586137363 1650.3172106287116 409.1088145426609Q1644.1677401929524 397.2217999204278 1633.4870810150546 390.6604032353833Q1622.7769985336367 384.0990065503388 1608.8009293614568 384.0990065503388L1608.8009293614568 384.0990065503388Q1608.8009293614568 384.0990065503388 1608.8009293614568 384.0990065503388Q1608.8009293614568 384.0990065503388 1608.8009293614568 384.0990065503388L1608.8009293614568 384.0990065503388Q1594.824860189277 384.0990065503388 1584.114777707859 390.6604032353833Q1573.4046952264412 397.2217999204278 1567.284648094202 409.1088145426609Q1561.135177658443 420.96640586137363 1561.135177658443 436.85498976237824L1561.135177658443 436.85498976237824Q1561.135177658443 436.85498976237824 1561.135177658443 436.85498976237824Q1561.135177658443 436.85498976237824 1561.135177658443 436.85498976237824L1561.135177658443 436.85498976237824Q1561.135177658443 452.7435736633829 1567.284648094202 464.7188581961771Q1573.4046952264412 476.664719425451 1584.114777707859 483.343809324577Q1594.824860189277 490.02289922370306 1608.8009293614568 490.02289922370306ZM1608.8009293614568 477.1060689782567L1608.8009293614568 477.1060689782567Q1623.1889247829222 477.1060689782567 1632.104185749597 466.3077165862776Q1640.9900234127513 455.47994089077815 1640.9900234127513 436.85498976237824L1640.9900234127513 436.85498976237824Q1640.9900234127513 418.200615330458 1632.104185749597 407.6082260631216Q1623.1889247829222 397.01583679578516 1608.8009293614568 397.01583679578516L1608.8009293614568 397.01583679578516Q1594.5894737611138 397.01583679578516 1585.5859428838776 407.51995615256044Q1576.5824120066418 417.9946522058154 1576.5824120066418 436.85498976237824L1576.5824120066418 436.85498976237824Q1576.5824120066418 455.47994089077815 1585.5859428838776 466.3077165862776Q1594.5894737611138 477.1060689782567 1608.8009293614568 477.1060689782567ZM1608.8009293614568 499.3500864396632L1608.8009293614568 499.3500864396632Q1591.2057938562702 499.3500864396632 1577.7593441474569 491.2881012750793Q1564.312894438644 483.2555394140159 1556.6922588268658 469.16177702775434Q1549.0421999115674 455.0680146414929 1549.0421999115674 436.85498976237824L1549.0421999115674 436.85498976237824Q1549.0421999115674 418.6419648832637 1556.6922588268658 404.6364724075633Q1564.312894438644 390.6604032353833 1577.7593441474569 382.716111284881Q1591.2057938562702 374.7718193343787 1608.8009293614568 374.7718193343787L1608.8009293614568 374.7718193343787Q1626.1606784384803 374.7718193343787 1639.6071281472937 382.716111284881Q1653.0830011596272 390.6604032353833 1660.7919066819663 404.6364724075633Q1668.530235507826 418.6419648832637 1668.530235507826 436.85498976237824L1668.530235507826 436.85498976237824Q1668.530235507826 455.0680146414929 1660.7919066819663 469.16177702775434Q1653.0830011596272 483.2555394140159 1639.6071281472937 491.2881012750793Q1626.1606784384803 499.3500864396632 1608.8009293614568 499.3500864396632ZM1608.8009293614568 473.7223890734131L1608.8009293614568 473.7223890734131Q1595.8840991160105 473.7223890734131 1587.9398071655082 463.8655823940862Q1579.995515215006 454.0087757147592 1579.995515215006 436.85498976237824L1579.995515215006 436.85498976237824Q1579.995515215006 419.70120380999737 1587.9398071655082 410.050360255313Q1595.8840991160105 400.39951670062874 1608.8009293614568 400.39951670062874L1608.8009293614568 400.39951670062874Q1621.9237227315457 400.39951670062874 1629.779744771487 410.1680534693946Q1637.6063435079077 419.90716693464 1637.6063435079077 436.85498976237824L1637.6063435079077 436.85498976237824Q1637.6063435079077 454.0087757147592 1629.779744771487 463.8655823940862Q1621.9237227315457 473.7223890734131 1608.8009293614568 473.7223890734131ZM1608.8009293614568 502.73376634450676L1608.8009293614568 502.73376634450676Q1627.0139542405714 502.73376634450676 1641.3136797514758 494.25985493063763Q1655.6134052623797 485.7859435167685 1663.7636603375245 470.9565985424975Q1671.9139154126697 456.1272535682265 1671.9139154126697 436.85498976237824L1671.9139154126697 436.85498976237824Q1671.9139154126697 417.58272595653006 1663.7636603375245 402.8416508928202Q1655.6134052623797 388.1299991326307 1641.3136797514758 379.7443576293227Q1627.0139542405714 371.3881394295351 1608.8009293614568 371.3881394295351L1608.8009293614568 371.3881394295351Q1590.3525180541792 371.3881394295351 1576.0527925432748 379.7443576293227Q1561.7530670323708 388.1299991326307 1553.7205051713077 402.9593441069017Q1545.6585200067234 417.7886890811727 1545.6585200067234 436.85498976237824L1545.6585200067234 436.85498976237824Q1545.6585200067234 456.1272535682265 1553.7205051713077 470.9565985424975Q1561.7530670323708 485.7859435167685 1576.0527925432748 494.25985493063763Q1590.3525180541792 502.73376634450676 1608.8009293614568 502.73376634450676Z " fill="#ec8b5e" transform="matrix(0.5233522770298913,0,0,0.5233522770298914,0,76.14456557703757)"/></g></svg>